<?xml version="1.0" encoding="UTF-8" standalone="no"?>
<svg
   xmlns:dc="http://purl.org/dc/elements/1.1/"
   xmlns:cc="http://creativecommons.org/ns#"
   xmlns:rdf="http://www.w3.org/1999/02/22-rdf-syntax-ns#"
   xmlns:svg="http://www.w3.org/2000/svg"
   xmlns="http://www.w3.org/2000/svg"
   height="631.37451"
   width="404.74567"
   xml:space="preserve"
   viewBox="0 0 404.74566 631.37449"
   y="0px"
   x="0px"
   id="Layer_1"
   version="1.1"><metadata
     id="metadata9292"><rdf:RDF><cc:Work
         rdf:about=""><dc:format>image/svg+xml</dc:format><dc:type
           rdf:resource="http://purl.org/dc/dcmitype/StillImage" /><dc:title></dc:title></cc:Work></rdf:RDF></metadata><defs
     id="defs9290" /><g
     transform="translate(-173.64494,-177.2036)"
     id="g9659"><g
       id="g9610"
       transform="matrix(4.3764543,0,0,4.3764543,-545.13273,-2441.1526)"><path
         style="clip-rule:evenodd;fill:#9d2632;fill-rule:evenodd"
         d="m 188.8,598.67 c 0.096,0.456 -0.567,0.153 -0.84,0.24 0.007,-0.283 0.631,-0.556 0.84,-0.24 z"
         id="path8952" /><path
         style="clip-rule:evenodd;fill:#9d2632;fill-rule:evenodd"
         d="m 195.52,598.79 c -0.033,0.278 -0.32,0.276 -0.48,0.12 0.034,-0.278 0.321,-0.275 0.48,-0.12 z"
         id="path8958" /><path
         style="clip-rule:evenodd;fill:#9d2632;fill-rule:evenodd"
         d="m 215.68,598.67 c 0.69,1.944 2.913,1.605 3.96,0 1.176,0.225 3.383,-0.583 3.48,0.72 -0.763,0.034 -1.211,-0.277 -1.56,0.24 0.338,1.095 2.096,1.885 2.64,0.48 -0.058,-0.542 -0.767,-0.433 -0.6,-1.2 0.682,-0.551 1.448,0.32 2.28,0.36 0.738,0.035 1.534,-0.688 2.16,-0.12 -0.069,0.45 -0.79,0.249 -0.84,0.72 -0.295,1.216 0.847,1.924 1.8,2.28 0.18,0.939 0.989,1.251 1.56,1.8 -0.793,1.205 -2.445,0.677 -3.84,0.36 0.027,1.192 1.151,1.751 1.8,2.4 0.673,0.674 1.257,1.503 2.16,1.92 0.543,-0.017 0.628,-0.491 1.2,-0.48 -0.096,0.744 -0.368,1.312 -0.36,2.16 -0.675,-0.005 -0.694,-0.666 -1.32,-0.721 -0.781,0.34 -1.122,1.118 -1.8,1.561 0.559,0.96 1.82,1.22 2.76,1.8 -0.171,0.56 0.094,1.204 0.48,1.8 -0.059,1.182 -0.83,1.856 -0.84,2.88 -0.011,1.104 1.004,2.051 0.72,3.48 -3.322,0.735 1.974,3.577 -0.48,5.52 -0.088,0.529 0.389,0.492 0.48,0.84 0,0.721 0,1.44 0,2.16 -3.374,-1.226 -6.237,-2.962 -9.96,-3.84 -0.555,-1.445 -2.43,-1.569 -3.72,-2.28 -0.173,-1.026 -0.466,-1.934 -1.56,-2.04 -0.478,0.163 -0.461,0.819 -0.84,1.08 -1.883,0.381 -2.612,-0.956 -2.16,-2.519 0.621,0.377 1.533,0.739 1.92,-0.12 -0.343,-0.777 -1.056,-1.185 -1.8,-1.56 -0.05,-0.77 0.096,-1.344 0.36,-1.801 0.628,-0.331 1.761,-0.159 2.16,-0.72 -0.404,-0.916 -1.61,-1.03 -2.52,-1.44 0.19,-1.73 -0.532,-4.373 0.72,-5.04 -0.854,-0.427 -0.761,-1.799 -0.72,-3.12 0.33,-0.351 1.049,-0.312 1.44,-0.601 -0.089,-0.711 -0.538,-1.062 -0.96,-1.44 0.823,-0.256 0.277,-1.28 0.48,-1.92 0.232,-0.731 0.763,-0.702 1.079,-1.2 -0.217,-0.823 -1.288,-0.792 -1.92,-1.2 -0.014,-0.534 0.42,-0.62 0.36,-1.2 0.601,10e-4 1.201,10e-4 1.801,10e-4 z m 2.76,2.64 c 0.275,0.989 1.938,1.962 2.52,0.6 -0.472,-0.583 -1.814,-1.697 -2.52,-0.6 z m 5.52,0.36 c 0.164,1.317 1.952,2.236 2.88,1.08 0.132,-1.412 -1.921,-1.506 -2.88,-1.08 z m -8.64,1.32 c 0.436,0.909 2.257,2.103 2.52,0.24 -0.407,-0.479 -2.037,-0.945 -2.52,-0.24 z m 5.52,0.48 c 0.081,1.248 1.414,2.161 2.52,1.32 0.253,-0.505 0.065,-1.146 -0.12,-1.56 -0.64,-0.367 -1.991,-0.311 -2.4,0.24 z m -3.12,1.56 c 0.098,1.183 1.52,1.907 2.64,1.32 -0.031,-1.283 -1.501,-1.876 -2.64,-1.32 z m 5.64,1.201 c 0.632,0.508 1.662,1.996 2.52,0.84 0.055,-1.27 -2.246,-2.389 -2.52,-0.84 z m -6.24,1.439 c 0.065,-0.723 -1.485,-1.641 -2.28,-0.72 -0.224,1.042 2.155,2.106 2.28,0.72 z m 3.24,0.12 c 0.066,0.615 0.95,1.449 2.04,1.44 1.429,-1.206 -1.307,-2.767 -2.04,-1.44 z m 5.52,0.84 c 0.32,0.851 1.998,1.894 2.52,0.48 -0.349,-0.685 -2.038,-1.721 -2.52,-0.48 z m -8.52,0.84 c -0.154,1.435 2.161,1.811 2.28,0.36 -0.292,-0.636 -1.63,-0.782 -2.28,-0.36 z m 3.36,0.72 c 0.805,0.054 0.588,-0.682 0,-0.721 -0.276,0.264 -0.195,0.4 0,0.721 z m 2.04,0.36 c 0.354,0.836 1.774,1.299 2.64,0.601 0.01,-1.203 -2.267,-1.891 -2.64,-0.601 z m -8.64,0.12 c -0.138,1.47 1.529,1.824 2.64,1.32 -0.186,-1.094 -1.483,-1.945 -2.64,-1.32 z m 5.4,0.84 c -0.31,1.452 1.969,2.253 2.64,1.2 0.088,-0.861 -1.626,-2.146 -2.64,-1.2 z m 9.12,4.32 c 0.42,0.372 1.58,0.802 1.68,-0.12 -0.015,0.14 -0.601,-0.701 -0.84,-0.96 -1.023,-1.105 -3.205,-3.673 -4.32,-1.8 0.408,0.832 1.626,0.854 2.52,1.2 0.357,0.472 0.358,1.147 0.96,1.68 z m -12,-1.92 c 0.38,0.628 1.495,0.86 2.4,0.6 0.097,-0.994 -2.305,-2.029 -2.4,-0.6 z m 7.8,1.321 c 0.073,-1.073 -1.008,-0.992 -1.92,-1.08 -0.044,0.983 1.047,1.406 1.92,1.08 z m -5.04,0.479 c -0.516,1.098 1.614,2.273 1.92,0.84 -0.3,-0.561 -1.017,-1.272 -1.92,-0.84 z m 5.4,0.96 c -0.008,1.163 1.729,2.044 2.16,0.721 -0.209,-0.76 -1.573,-1.792 -2.16,-0.721 z m -8.52,0.84 c -0.136,0.586 0.985,1.792 1.8,1.08 0.02,-0.919 -1.017,-1.356 -1.8,-1.08 z m 5.88,0.96 c -0.345,0.736 1.293,2.083 1.68,0.721 -0.169,-0.553 -1.269,-1.538 -1.68,-0.721 z m 6.36,2.16 c 0.539,-0.022 0.871,-0.249 1.2,-0.48 0.028,-0.531 0.228,-0.866 -0.24,-1.08 -0.41,0.43 -0.954,0.726 -0.96,1.56 z m -9.6,0.36 c 0.391,0.248 0.707,0.573 1.44,0.479 0.067,-0.172 0.187,-0.292 0.36,-0.359 0.457,-1.569 -2.227,-1.861 -1.8,-0.12 z m 5.52,0 c 0.039,0.747 0.947,1.178 1.68,0.84 0.273,-1.123 -1.091,-1.302 -1.68,-0.84 z m -2.28,2.88 c 1.867,-0.16 0.898,-1.405 -0.12,-1.68 -0.063,0.663 0.069,1.131 0.12,1.68 z m 5.4,0 c 0.187,-0.222 -0.091,-0.707 -0.6,-0.6 -0.027,0.427 0.173,0.628 0.6,0.6 z m 0.84,0.361 c 0.12,0 0.24,0 0.36,0 0.021,-0.262 -0.098,-0.382 -0.36,-0.36 0,0.119 0,0.239 0,0.36 z m -3.36,1.919 c 0.049,-0.232 0.465,-0.095 0.36,-0.48 -0.264,-0.05 -0.662,0.359 -0.36,0.48 z"
         id="path8960" /><path
         style="clip-rule:evenodd;fill:#9d2632;fill-rule:evenodd"
         d="m 231.88,598.91 c -0.029,0.211 -0.207,0.273 -0.48,0.24 -0.019,-0.336 0.339,-0.391 0.48,-0.24 z"
         id="path8964" /><path
         style="clip-rule:evenodd;fill:#9d2632;fill-rule:evenodd"
         d="m 230.8,599.51 c 0.393,-0.025 0.474,0.563 0,0.48 0,-0.16 0,-0.32 0,-0.48 z"
         id="path8972" /><path
         style="clip-rule:evenodd;fill:#9d2632;fill-rule:evenodd"
         d="m 202.36,599.99 c -0.021,-0.195 0.785,-0.242 0.6,0.12 -0.339,0.099 -0.311,-0.169 -0.6,-0.12 z"
         id="path8976" /><path
         style="clip-rule:evenodd;fill:#9d2632;fill-rule:evenodd"
         d="m 231.4,600.47 c 0.425,0.415 0.568,1.112 0.6,1.92 -1.057,0.098 -1.71,-0.21 -2.52,-0.359 0.86,-0.3 0.506,-1.815 1.92,-1.561 z"
         id="path8982" /><path
         style="clip-rule:evenodd;fill:#9d2632;fill-rule:evenodd"
         d="m 203.56,600.59 c 0.241,-0.04 0.375,0.025 0.36,0.24 -0.12,0 -0.24,0 -0.36,0 0,-0.08 0,-0.16 0,-0.24 z"
         id="path8984" /><path
         style="clip-rule:evenodd;fill:#9d2632;fill-rule:evenodd"
         d="m 213.4,601.67 c 0.12,0 0.24,0 0.36,0 -0.069,0.211 0.145,0.705 -0.12,0.72 -0.434,0.114 -0.167,-0.472 -0.24,-0.72 z"
         id="path8988" /><path
         style="clip-rule:evenodd;fill:#9d2632;fill-rule:evenodd"
         d="m 172,603.231 c 0.08,0 0.16,0 0.24,0 -0.022,0.102 0.047,0.113 0.12,0.12 0,0.08 0,0.159 0,0.239 -0.102,-0.021 -0.113,0.047 -0.12,0.12 -0.08,0 -0.16,0 -0.24,0 0.022,-0.102 -0.047,-0.113 -0.12,-0.12 0,-0.08 0,-0.159 0,-0.239 0.102,0.021 0.113,-0.047 0.12,-0.12 z"
         id="path8992" /><path
         style="clip-rule:evenodd;fill:#9d2632;fill-rule:evenodd"
         d="m 175.72,603.231 c 0.08,0 0.16,0 0.24,0 -0.022,0.102 0.047,0.113 0.12,0.12 0,0.08 0,0.159 0,0.239 -0.102,-0.021 -0.113,0.047 -0.12,0.12 -0.08,0 -0.16,0 -0.24,0 0.022,-0.102 -0.047,-0.113 -0.12,-0.12 0,-0.08 0,-0.159 0,-0.239 0.102,0.021 0.113,-0.047 0.12,-0.12 z"
         id="path8994" /><path
         style="clip-rule:evenodd;fill:#9d2632;fill-rule:evenodd"
         d="m 177.76,603.71 c 0.027,0.428 -0.173,0.628 -0.6,0.6 0.015,-0.216 -0.147,-0.254 -0.12,-0.48 0.283,0.003 0.354,-0.206 0.72,-0.12 z"
         id="path9000" /><path
         style="clip-rule:evenodd;fill:#9d2632;fill-rule:evenodd"
         d="m 231.4,604.55 c 0.12,0 0.24,0 0.36,0 0,0.12 0,0.24 0,0.36 -0.12,0 -0.24,0 -0.36,0 0,-0.12 0,-0.24 0,-0.36 z"
         id="path9004" /><path
         style="clip-rule:evenodd;fill:#9d2632;fill-rule:evenodd"
         d="m 165.76,604.79 c 0.911,0.05 1.29,0.63 1.559,1.32 -0.401,0.278 -1.105,0.255 -1.8,0.24 0.025,-0.576 0.322,-0.878 0.241,-1.56 z"
         id="path9006" /><path
         style="clip-rule:evenodd;fill:#9d2632;fill-rule:evenodd"
         d="m 229.96,605.03 c 0.761,-0.081 1.277,0.083 1.68,0.36 0.119,0.51 0.391,1.135 0.12,1.68 -0.544,0.186 -0.827,0.019 -1.32,-0.12 -0.296,-0.504 -0.498,-1.101 -0.48,-1.92 z"
         id="path9010" /><path
         style="clip-rule:evenodd;fill:#9d2632;fill-rule:evenodd"
         d="m 229.48,606.351 c -0.357,-0.003 -0.731,0.011 -0.72,-0.36 0.275,-0.26 0.749,-0.045 0.72,0.36 z"
         id="path9012" /><path
         style="clip-rule:evenodd;fill:#9d2632;fill-rule:evenodd"
         d="m 246.64,605.87 c 0.393,-0.025 0.474,0.562 0,0.48 0,-0.16 0,-0.32 0,-0.48 z"
         id="path9014" /><path
         style="clip-rule:evenodd;fill:#9d2632;fill-rule:evenodd"
         d="m 206.8,616.431 c 0.017,-0.047 0.254,-0.213 0.36,-0.12 0.238,0.206 -0.532,0.578 -0.36,0.12 z"
         id="path9090" /><path
         style="clip-rule:evenodd;fill:#9d2632;fill-rule:evenodd"
         d="m 206.56,621.95 c 0.462,-0.095 0.462,0.574 0,0.481 0,-0.16 0,-0.321 0,-0.481 z"
         id="path9120" /><path
         style="clip-rule:evenodd;fill:#9d2632;fill-rule:evenodd"
         d="m 204.04,627.95 c 0.241,-0.041 0.376,0.024 0.36,0.24 -0.12,0 -0.24,0 -0.36,0 0,-0.08 0,-0.16 0,-0.24 z"
         id="path9142" /><path
         style="clip-rule:evenodd;fill:#9d2632;fill-rule:evenodd"
         d="m 202.36,629.99 c 0.16,0 0.32,0 0.48,0 -0.036,0.245 -0.325,0.235 -0.36,0.479 -0.163,-0.036 -0.1,-0.299 -0.12,-0.479 z"
         id="path9146" /><path
         style="clip-rule:evenodd;fill:#9d2632;fill-rule:evenodd"
         d="m 244.6,643.79 c 0.053,0.453 -0.236,0.563 -0.36,0.84 -0.754,-0.005 -1.42,-0.1 -1.68,-0.6 -0.018,-1.027 1.712,-0.819 2.04,-0.24 z"
         id="path9164" /><path
         style="clip-rule:evenodd;fill:#9d2632;fill-rule:evenodd"
         d="m 250,657.351 c 0.089,0.608 -0.297,0.742 -0.48,1.08 -0.803,-0.157 -1.77,-0.15 -2.04,-0.841 0.323,-0.588 1.941,-0.642 2.52,-0.239 z"
         id="path9188" /><path
         style="clip-rule:evenodd;fill:#9d2632;fill-rule:evenodd"
         d="m 253.48,658.79 c -0.08,1.153 -1.929,1.067 -3.001,0.84 -0.068,-0.299 -0.6,-0.75 -0.24,-1.08 0.711,-0.85 2.137,0.324 3.241,0.24 z"
         id="path9192" /><path
         style="clip-rule:evenodd;fill:#9d2632;fill-rule:evenodd"
         d="m 239.92,660.471 c -0.065,0.374 -0.286,0.594 -0.6,0.72 -0.551,-0.409 -1.076,-0.844 -1.32,-1.56 0.731,-0.883 1.176,0.648 1.92,0.84 z"
         id="path9194" /><path
         style="clip-rule:evenodd;fill:#9d2632;fill-rule:evenodd"
         d="m 243.64,663.471 c 0,-0.801 0,-1.601 0,-2.4 -0.761,-0.278 -2.039,-0.041 -3,-0.12 -0.109,-0.812 1.51,-1.379 2.28,-1.32 0.904,0.069 2.058,1.182 2.16,2.16 0.066,0.637 0.042,1.921 -1.44,1.68 z"
         id="path9196" /><path
         style="clip-rule:evenodd;fill:#9d2632;fill-rule:evenodd"
         d="m 255.28,659.87 c -0.037,0.163 -0.3,0.1 -0.48,0.12 0.033,-0.278 0.321,-0.275 0.48,-0.12 z"
         id="path9198" /><path
         style="clip-rule:evenodd;fill:#9d2632;fill-rule:evenodd"
         d="m 253.72,660.59 c 0.103,0.968 -1.695,1.164 -1.8,0.24 0.29,-0.4 1.242,-0.47 1.8,-0.24 z"
         id="path9200" /><path
         style="clip-rule:evenodd;fill:#9d2632;fill-rule:evenodd"
         d="m 249.64,661.07 c 0.014,0.534 -0.102,0.938 -0.72,0.84 0.036,-0.483 0.177,-0.862 0.72,-0.84 z"
         id="path9208" /><path
         style="clip-rule:evenodd;fill:#9d2632;fill-rule:evenodd"
         d="m 248.2,661.19 c 0.078,0.406 -0.781,0.488 -0.96,0.24 -0.073,-0.473 0.659,-0.141 0.96,-0.24 z"
         id="path9210" /><path
         style="clip-rule:evenodd;fill:#9d2632;fill-rule:evenodd"
         d="m 246.76,661.431 c -0.302,0.577 -0.638,1.121 -1.56,1.08 -0.002,-0.883 0.532,-1.229 1.56,-1.08 z"
         id="path9212" /><path
         style="clip-rule:evenodd;fill:#9d2632;fill-rule:evenodd"
         d="m 250.12,661.91 c 0.347,0.053 0.547,0.253 0.6,0.601 -0.309,0.273 -0.679,-0.119 -0.72,-0.48 0.102,0.022 0.113,-0.048 0.12,-0.121 z"
         id="path9216" /><path
         style="clip-rule:evenodd;fill:#9d2632;fill-rule:evenodd"
         d="m 239.68,662.271 c 0.167,-0.273 0.835,-0.045 1.2,-0.12 0.026,0.646 -0.995,0.309 -1.2,0.12 z"
         id="path9218" /><path
         style="clip-rule:evenodd;fill:#9d2632;fill-rule:evenodd"
         d="m 242.8,662.99 c 0.02,0.261 -0.426,0.055 -0.6,0.12 0.015,-0.215 -0.147,-0.253 -0.12,-0.48 0.44,-0.249 0.46,0.134 0.72,0.36 z"
         id="path9222" /><path
         style="clip-rule:evenodd;fill:#9d2632;fill-rule:evenodd"
         d="m 244.96,663.11 c 0.08,0 0.16,0 0.24,0 -0.022,0.102 0.047,0.113 0.12,0.12 0,0.08 0,0.16 0,0.24 -0.102,-0.022 -0.113,0.046 -0.12,0.119 -0.08,0 -0.16,0 -0.24,0 0.022,-0.101 -0.047,-0.112 -0.12,-0.119 0,-0.08 0,-0.16 0,-0.24 0.102,0.022 0.114,-0.046 0.12,-0.12 z"
         id="path9226" /><path
         style="clip-rule:evenodd;fill:#9d2632;fill-rule:evenodd"
         d="m 246.28,663.11 c 0.2,0 0.4,0 0.6,0 0.123,0.403 -0.374,0.187 -0.6,0.24 0,-0.079 0,-0.16 0,-0.24 z"
         id="path9228" /><path
         style="clip-rule:evenodd;fill:#9d2632;fill-rule:evenodd"
         d="m 251.8,664.67 c -0.338,0.182 -0.75,0.29 -1.32,0.24 -0.104,-1.165 1.242,-1.38 1.32,-0.24 z"
         id="path9230" /><path
         style="clip-rule:evenodd;fill:#9d2632;fill-rule:evenodd"
         d="m 255.16,663.83 c 0.124,0.403 -0.373,0.186 -0.6,0.24 0.102,-0.177 0.302,-0.258 0.6,-0.24 z"
         id="path9232" /><path
         style="clip-rule:evenodd;fill:#9d2632;fill-rule:evenodd"
         d="m 252.28,664.431 c 0.393,-0.025 0.474,0.562 0,0.479 0,-0.16 0,-0.32 0,-0.479 z"
         id="path9234" /><path
         style="clip-rule:evenodd;fill:#9d2632;fill-rule:evenodd"
         d="m 247.36,664.67 c -0.171,0.43 -0.666,0.535 -1.32,0.48 -0.021,-0.586 0.849,-0.769 1.32,-0.48 z"
         id="path9236" /><path
         style="clip-rule:evenodd;fill:#9d2632;fill-rule:evenodd"
         d="m 238.12,665.15 c 0.393,-0.025 0.474,0.562 0,0.479 0,-0.158 0,-0.319 0,-0.479 z"
         id="path9246" /><path
         style="clip-rule:evenodd;fill:#9d2632;fill-rule:evenodd"
         d="m 253,665.63 c 0.32,0 0.64,0 0.96,0 -0.171,0.31 -0.281,0.68 -0.72,0.721 -0.069,-0.251 -0.297,-0.343 -0.24,-0.721 z"
         id="path9250" /><path
         style="clip-rule:evenodd;fill:#9d2632;fill-rule:evenodd"
         d="m 242.56,667.07 c -0.047,0.829 -1.664,0.508 -1.68,-0.12 0.477,-0.296 1.29,-0.054 1.68,0.12 z"
         id="path9258" /><path
         style="clip-rule:evenodd;fill:#9d2632;fill-rule:evenodd"
         d="m 240.16,667.19 c -0.029,0.211 -0.207,0.273 -0.48,0.24 -0.018,-0.336 0.34,-0.391 0.48,-0.24 z"
         id="path9262" /><path
         style="clip-rule:evenodd;fill:#9d2632;fill-rule:evenodd"
         d="m 246.04,600.11 c 0.645,-0.115 0.646,-0.874 1.2,-1.08 1.051,-0.09 2.006,0.25 2.64,0.72 0.567,0.42 0.838,1.476 1.8,1.08 0.182,-0.968 -1.06,-1.066 -0.84,-1.68 1.793,-0.942 2.985,1.115 4.32,0.239 0.345,0.615 0.83,1.091 1.2,1.681 0.23,1.794 -0.257,3.464 -0.24,5.04 0.007,0.67 0.336,1.389 0.24,2.04 -0.076,0.51 -0.648,0.932 -0.72,1.439 -0.173,1.22 1.185,2.656 0,3.601 -0.638,-0.002 -0.737,-0.543 -0.84,-1.08 -0.376,0.104 -0.663,0.297 -0.84,0.6 0.513,0.967 2.182,0.778 2.76,1.681 -0.679,1.261 -0.676,2.923 -1.08,4.199 -0.146,0.462 -0.625,0.807 -0.6,1.32 0.05,1.018 1.641,1.871 1.2,3.72 -0.548,0.053 -1.321,-0.121 -1.68,0.12 -0.132,0.844 1.011,0.938 1.56,1.44 -0.064,0.936 -0.042,1.958 -0.36,2.64 -0.441,-0.232 -1.279,-0.388 -1.68,0 0,0.28 0,0.56 0,0.84 0.506,0.357 1.071,-0.079 1.56,-0.12 0.058,1.343 -0.265,3.065 0.6,3.601 -0.432,0.505 -0.332,0.985 -0.12,1.68 -0.329,0.191 -0.725,0.315 -1.2,0.36 -0.208,1.317 1.931,2.926 0.36,4.2 -0.765,0.164 -0.751,-0.449 -1.44,-0.36 -0.694,1.498 0.843,2.158 1.92,1.92 0.145,0.559 -0.184,0.979 -0.12,1.561 0.046,0.419 0.426,0.787 0.48,1.199 0.093,0.715 -0.25,1.133 -0.24,1.92 -0.628,-0.027 -1.052,0.148 -1.32,0.48 0.519,1.521 1.701,2.38 1.68,4.44 -0.709,-0.25 -1.157,-0.763 -2.04,-0.84 -0.575,0.409 -0.279,1.409 0.24,1.681 0.635,0.035 0.992,-0.209 1.56,-0.24 -0.062,1.229 -0.465,1.926 -0.12,3 -0.162,0.278 -0.429,0.451 -0.72,0.6 -0.027,0.507 0.185,0.775 0.24,1.2 -0.44,-0.04 -0.667,0.134 -0.96,0.24 0,0.8 0,1.6 0,2.399 -0.326,0.155 -0.667,0.294 -1.2,0.24 0.05,-0.55 0.626,-0.573 0.84,-0.96 -0.702,-0.497 -2.275,-0.125 -3.36,-0.24 0.055,-0.585 0.917,-0.362 1.32,-0.6 -0.021,-0.579 -0.579,-0.621 -0.6,-1.2 0.869,-0.987 2.828,0.39 3.24,-1.2 -0.758,-1.678 -1.922,-1.26 -3,-0.119 -0.287,0.303 -0.841,1.281 -1.08,1.319 -0.485,0.079 -0.498,-0.963 -1.2,-0.48 -0.266,0.489 0.288,1.595 -0.24,2.04 -1.198,0.038 -1.75,-0.57 -2.64,-0.841 -0.705,0.236 -1.547,0.388 -1.92,-0.239 -0.809,1.474 1.676,1.557 2.4,2.279 -0.068,0.492 -0.626,0.494 -0.84,0.841 0.392,0.768 1.771,0.549 2.04,1.439 -0.682,0.318 -1.705,0.295 -2.64,0.36 -0.494,-1.347 -0.458,-3.222 -2.04,-3.481 -0.589,-0.108 -0.457,0.503 -0.96,0.481 -0.284,-0.544 -0.877,-0.496 -1.44,-0.24 0.258,0.702 0.941,0.978 1.08,1.8 -1.429,-0.434 -2.874,-0.596 -4.2,0 0.063,-1.017 1.166,-0.994 1.68,-1.56 -0.444,-1.128 -1.652,-1.558 -1.32,-3.72 1.344,0.023 2.166,-0.475 2.64,-1.32 0.763,-0.481 1.425,-0.113 2.4,-0.72 0.632,-0.394 0.845,-1.38 1.44,-1.44 0.566,-0.058 1.674,0.865 1.56,1.68 -0.646,0.492 -0.736,-0.764 -1.32,-0.359 -0.23,0.516 0.539,0.948 0.72,1.439 -0.833,0.008 -2.063,-0.273 -2.52,0.601 -0.438,-0.002 -0.539,-0.342 -0.84,-0.48 -0.411,1.229 -2.144,1.137 -3.24,1.68 0.162,0.479 0.365,0.915 0.72,1.2 0.84,0 1.68,0 2.52,0 0.28,-0.439 0.295,-1.144 0.72,-1.439 0.971,-0.261 1.881,0.28 2.64,0.6 0.446,-0.475 0.313,-1.527 0.84,-1.92 0.688,-0.048 1.176,0.103 1.56,0.36 1.025,-1.216 3.123,-1.357 4.32,-2.4 -0.16,-0.68 -1.134,-0.546 -1.56,-0.96 -0.846,0.678 -2.017,2.164 -3.6,1.32 -0.366,-0.831 0.081,-1.667 -0.12,-2.4 -0.215,-0.785 -1.068,-1.261 -1.68,-1.56 -0.446,0.562 0.472,0.592 0.36,1.199 -0.529,0.571 -2.136,0.861 -3,0.36 -0.314,0.606 -0.983,0.857 -1.8,0.96 -0.372,0.548 -1.188,0.652 -1.44,1.32 -0.571,0.052 -0.897,-0.143 -1.2,-0.36 0.155,-1.165 0.946,-1.694 1.44,-2.52 -1.872,-1.052 -4.542,0.348 -5.64,1.199 -0.025,0.346 0.03,0.61 0.24,0.721 -0.96,0.279 -2.439,0.04 -3.6,0.12 -0.126,-0.526 0.406,-0.395 0.36,-0.841 -0.167,-0.713 -1.031,-0.729 -1.56,-1.079 -0.385,0.095 -0.524,0.435 -0.84,0.6 0.208,0.512 0.572,0.868 0.84,1.32 -3.016,-0.242 -6.576,0.367 -8.88,-1.08 -0.129,-1.603 -2.097,-3.141 -3.36,-1.8 0.293,1.146 2.002,0.878 2.16,2.159 -1.718,0.576 -3.233,-0.908 -4.32,-2.159 -0.808,-0.931 -1.771,-2.109 -1.68,-3.36 0.587,-0.327 1.162,-0.438 1.2,-0.96 0.06,-0.817 -1.806,-1.441 -1.92,-2.28 0.137,-2.903 -0.374,-6.454 0.72,-8.399 0.109,-0.59 -0.503,-0.458 -0.48,-0.961 0.3,-2.807 -0.608,-6.181 0.72,-8.04 1.711,0.016 2.828,1.099 3.96,1.801 1.169,0.725 2.382,1.285 3.48,2.159 2.773,0.479 4.899,1.14 6.84,2.28 0.523,0.309 1.007,0.569 1.56,0.84 1.378,0.677 2.498,1.479 4.44,1.681 0.285,0.435 0.713,0.727 1.32,0.84 0.569,0.009 0.402,-0.718 0.84,-0.84 1.184,0.198 2.253,-0.555 2.4,-1.681 0.071,-0.546 -0.183,-0.968 -0.24,-1.559 -0.126,-1.307 -0.071,-2.99 0,-4.561 0.195,-4.285 0.306,-8.864 0.36,-12.84 0.329,-0.231 0.702,-0.418 0.96,-0.72 -0.229,-0.595 -0.92,-0.583 -1.08,-1.2 -0.316,-1.22 0.688,-2.223 1.56,-2.64 -0.568,-1.192 -1.29,-2.231 -1.32,-3.96 0.455,0.342 1.628,0.375 1.8,-0.24 0.061,-1.221 -0.987,-1.333 -1.8,-1.68 0.079,-0.762 -0.204,-1.884 0.24,-2.28 1.273,0.545 3.622,-0.195 5.16,0.24 0.713,0.202 0.994,0.812 1.68,0.959 z m -2.16,0.84 c 0.02,-0.745 -1.588,-1.256 -2.16,-0.6 -0.174,1.606 2.131,1.679 2.16,0.6 z m 5.04,0.96 c 0.427,0.027 0.628,-0.173 0.6,-0.6 -0.413,-0.422 -1.022,0.187 -0.6,0.6 z m -0.84,0.12 c 0.014,-0.453 -0.235,-0.646 -0.6,-0.72 -0.334,0.394 0.113,0.776 0.6,0.72 z m -2.04,2.52 c 0.684,-0.963 0.195,-3.254 -0.96,-1.92 -0.251,-0.068 -0.342,-0.297 -0.72,-0.24 -0.577,0.962 0.812,1.518 0.12,2.761 0.592,-0.207 1.163,-0.042 1.56,-0.601 z m 7.44,-1.199 c 0.327,0.284 0.753,0.267 0.72,-0.36 -0.306,0.053 -0.552,0.167 -0.72,0.36 z m -7.92,3.359 c -1.521,0.263 -2.611,-3.763 -4.56,-2.16 0.307,1.174 1.662,1.299 2.52,1.92 0.313,0.887 0.99,1.41 1.56,2.04 0.299,-0.691 2.86,-1.552 2.88,-2.4 0.012,-0.516 -0.45,-0.919 -1.2,-1.08 -0.623,0.537 -0.391,1.54 -1.2,1.68 z m 4.8,-2.04 c 0,0.12 0,0.24 0,0.36 0.41,0.05 0.684,-0.036 0.6,-0.481 -0.278,-0.037 -0.461,0.02 -0.6,0.121 z m -9.48,4.44 c 0.222,0.615 1.68,0.918 1.8,0 -0.329,-0.344 -1.802,-1.092 -1.8,0 z m 5.16,0.84 c 0.74,0.118 0.708,-0.802 0,-0.72 -0.275,0.264 -0.195,0.399 0,0.72 z m 2.16,-0.12 c 0.033,-0.163 -0.074,-0.469 -0.12,-0.24 -0.033,0.164 0.075,0.469 0.12,0.24 z m 4.32,2.04 c 0.511,-0.289 1.148,-0.452 1.08,-1.32 -0.885,-0.559 -1.501,0.596 -1.08,1.32 z m -8.76,0.24 c 0.539,0.289 1.523,0.119 1.56,-0.48 -0.414,-0.266 -0.647,-0.712 -1.32,-0.72 -0.21,0.27 -0.057,0.902 -0.24,1.2 z m 6.24,0 c -0.177,-0.062 -0.302,-0.178 -0.48,-0.24 -0.147,0.473 0.421,0.646 0.48,0.24 z m 2.16,3.6 c 0.631,-0.782 -0.304,-1.455 -0.96,-1.68 -0.161,0.594 0.435,1.381 0.96,1.68 z m -9.48,-0.479 c -0.068,0.996 1.005,0.907 1.68,0.84 -0.04,-0.746 -1.067,-1.058 -1.68,-0.84 z m -2.16,2.399 c 0.082,-0.602 -0.289,-0.751 -0.72,-0.84 -0.069,0.589 0.383,0.657 0.72,0.84 z m 12.72,-0.48 c -0.222,1.408 1.948,1.595 1.8,0.12 -0.449,-0.268 -1.336,-0.551 -1.8,-0.12 z m -3.24,1.56 c 0.068,0.548 0.828,0.834 1.44,0.36 0.313,-1.762 -1.555,-1.291 -1.44,-0.36 z m 3.24,3.12 c 0.321,-0.648 -0.189,-1.16 -0.84,-1.2 0.096,0.585 0.322,1.039 0.84,1.2 z m -2.52,1.2 c 0.144,-0.984 -0.698,-0.982 -1.44,-1.08 -0.23,1.081 0.791,1.602 1.44,1.08 z m -4.08,1.44 c 0.289,0.05 0.261,-0.219 0.6,-0.119 0.018,-0.299 -0.062,-0.498 -0.24,-0.601 -0.067,0.293 -0.464,0.256 -0.36,0.72 z m 5.52,1.801 c 0.389,-0.172 0.538,-0.582 0.48,-1.2 -0.352,-0.288 -0.813,-0.467 -1.44,-0.481 0.065,0.815 0.27,1.491 0.96,1.681 z m -36.36,0.599 c 0.037,-0.283 0.417,-0.223 0.36,-0.6 -0.224,-0.096 -0.44,-0.201 -0.72,-0.24 0.042,0.358 0.069,0.731 0.36,0.84 z m 32.28,-0.72 c 0.112,0.648 0.576,0.944 1.08,1.2 0.203,-0.237 0.693,-0.188 0.6,-0.721 -0.269,-0.403 -1.067,-0.806 -1.68,-0.479 z m -2.52,3 c 0.367,0.233 0.926,0.274 1.56,0.24 0.305,-1.609 -1.576,-1.585 -1.56,-0.24 z m 4.8,-0.719 c -1.1,1.088 1.32,2.592 1.56,0.96 -0.318,-0.523 -0.886,-0.794 -1.56,-0.96 z m -26.64,1.319 c 0.444,0.084 0.53,-0.19 0.48,-0.6 -0.16,0 -0.32,0 -0.48,0 0,0.201 0,0.4 0,0.6 z m 21.48,0.72 c 0.304,0.127 0.532,-0.404 0.24,-0.479 -0.002,0.238 -0.327,0.152 -0.24,0.479 z m 3.6,0.72 c -0.038,-0.842 -0.668,-1.093 -1.44,-1.2 -0.067,0.892 0.632,1.576 1.44,1.2 z m -33.84,-0.72 c 0.06,0.501 0.542,0.578 0.96,0.721 0,-0.32 0,-0.641 0,-0.96 -0.44,-0.041 -0.667,0.132 -0.96,0.239 z m 29.52,2.28 c 0.863,-0.126 0.863,-1.434 0,-1.56 -0.417,0.307 -0.498,1.27 0,1.56 z m 8.16,-1.2 c -0.031,0.752 0.158,1.282 0.48,1.681 0.909,-0.092 1.318,-0.683 1.68,-1.32 -0.43,-0.505 -1.451,-0.814 -2.16,-0.361 z m -3.48,0.961 c 0.041,0.839 0.464,1.296 1.08,1.56 0.252,-0.229 0.633,-0.327 0.6,-0.84 -0.494,-0.329 -0.978,-1.319 -1.68,-0.72 z m -31.92,0.84 c 0.282,0.826 1.76,0.746 1.68,-0.36 -0.405,-0.359 -1.49,-0.192 -1.68,0.36 z m 15.12,-0.241 c 0.08,0 0.16,0 0.24,0 0,-0.08 0,-0.16 0,-0.24 -0.08,0 -0.16,0 -0.24,0 0,0.08 0,0.16 0,0.24 z m 6.24,0.96 c -0.008,-0.352 -0.274,-0.446 -0.48,-0.601 0.001,0.36 0.216,0.506 0.48,0.601 z M 223,633.71 c 0,0.12 0,0.24 0,0.36 0.277,0.221 1.217,0.648 1.32,0 -0.6,0.071 -0.91,-0.621 -1.32,-0.36 z m 22.68,1.681 c -0.39,-0.091 -0.743,-0.218 -1.08,-0.36 -0.046,0.445 0.486,0.313 0.36,0.84 -0.166,0.354 -0.554,0.486 -0.72,0.84 1.433,0.487 0.785,3.056 2.64,3.12 -0.102,-1.218 -1.051,-1.589 -1.08,-2.88 0.507,-1.013 2.078,-0.962 2.28,-2.28 -0.867,-1.215 -1.729,0.311 -2.4,0.72 z m -31.44,-0.481 c -0.116,0.953 1.702,1.227 1.92,0 -0.383,-0.788 -1.832,-0.725 -1.92,0 z m 5.04,0.24 c 0.07,1.237 2.15,1.859 2.52,0.48 -0.28,-0.693 -1.817,-0.95 -2.52,-0.48 z m 5.76,0.84 c -0.05,0.781 1.649,1.261 2.52,0.72 -0.122,-1.119 -2.449,-1.814 -2.52,-0.72 z m 10.2,-0.24 c 0.12,0 0.24,0 0.36,0 -0.019,-0.141 0.02,-0.341 -0.12,-0.359 -0.028,0.171 -0.197,0.202 -0.24,0.359 z m 18,0.601 c 0.095,-0.612 -0.65,-1.23 -1.56,-0.84 -0.517,1.201 1.378,2.019 1.56,0.84 z m -36.96,0.839 c 0.02,0.714 1.491,1.476 2.16,0.479 -0.137,-1.357 -2.2,-1.877 -2.16,-0.479 z m 25.08,-0.72 c 0.08,0 0.16,0 0.24,0 0,-0.079 0,-0.159 0,-0.239 -0.08,0 -0.16,0 -0.24,0 0,0.079 0,0.16 0,0.239 z m 8.52,2.041 c 0.417,-1.077 -0.268,-1.93 -1.2,-2.041 -0.123,0.784 0.054,2.143 1.2,2.041 z m -18.84,-1.681 c -0.124,1.091 1.628,1.475 1.92,0.48 -0.335,-0.537 -1.317,-0.895 -1.92,-0.48 z m -8.52,0.12 c -0.514,0.467 -0.113,1.471 0.12,1.92 2.097,0.716 1.829,-2.282 -0.12,-1.92 z m 5.04,1.321 c -0.152,1.079 1.835,1.727 2.28,0.72 -0.222,-0.737 -1.685,-1.47 -2.28,-0.72 z m -14.04,1.199 c 0.665,0.181 2.088,0.31 2.16,-0.479 -0.469,-0.901 -2.304,-1.023 -2.16,0.479 z m 5.4,0.12 c 0.057,0.792 1.349,1.491 2.16,0.721 0.19,-1.72 -2.274,-2.3 -2.16,-0.721 z m 14.76,0.6 c 0.718,0.248 2.144,0.246 2.04,-0.721 -0.65,-1.038 -2.001,-0.435 -2.04,0.721 z m -9.48,-0.24 c 0.403,0.438 0.768,0.913 1.2,1.32 0.848,0.048 1.386,-0.214 1.56,-0.84 -0.197,-0.811 -2.171,-1.188 -2.76,-0.48 z m 14.76,0 c 0.042,0.6 0.614,1.704 1.32,2.04 0.171,-0.709 0.754,-1.006 0.72,-1.92 -0.403,-0.269 -1.51,-0.364 -2.04,-0.12 z m 12.48,0.96 c 0.591,0.41 1.044,-0.19 1.08,-0.72 -0.422,-0.506 -1.274,-0.104 -1.08,0.72 z m -21.48,0 c -0.13,0.815 2.191,1.771 2.4,0.601 -0.063,-1.177 -2.233,-1.645 -2.4,-0.601 z m -14.4,-0.24 c 0.06,1.181 0.753,1.728 1.44,2.28 1.851,-1.037 0.273,-3.361 -1.44,-2.28 z m 31.44,0.12 c 0.042,1.102 1.095,2.343 2.04,1.44 0.019,-0.618 -0.153,-1.047 -0.36,-1.44 -0.456,-0.332 -1.211,-0.261 -1.68,0 z m -25.8,0.84 c 0.02,1.193 1.802,1.52 2.64,0.84 -0.448,-0.952 -1.884,-2.215 -2.64,-0.84 z m 12.96,0.36 c 0.247,0.753 1.491,0.509 2.16,0.84 -0.035,0.545 -0.176,0.719 0.12,1.08 0.718,-0.361 1.017,-1.143 1.44,-1.8 -0.291,-1.052 -3.559,-1.792 -3.72,-0.12 z m 11.16,-0.599 c -1.168,-0.248 -0.95,0.89 -1.8,0.96 -0.552,-0.129 -0.586,-0.669 -1.2,-0.721 -0.762,-0.064 -1.343,0.47 -1.56,1.2 0.299,1.102 1.291,1.509 1.44,2.76 -0.35,0.41 -0.978,0.543 -1.32,0.96 -0.09,0.77 0.14,1.221 0.12,1.921 0.716,-0.284 0.964,-1.037 1.8,-1.2 0.566,0.073 0.661,0.619 1.32,0.6 0.574,-0.354 1.052,-0.86 0.72,-1.8 0.362,-0.158 0.652,-0.388 1.2,-0.36 0.619,0.262 0.589,1.171 1.32,1.32 0.02,-0.14 0.189,-0.13 0.36,-0.12 0.781,-1.491 -0.127,-3.812 -1.56,-3.479 -0.338,0.486 0.574,0.576 0.48,1.199 -0.332,0.231 -1.167,0.588 -1.68,0.24 0.527,-0.942 1.475,-2.579 0.36,-3.48 z m 7.08,1.559 c 0.356,0.363 0.788,0.652 1.44,0.72 1.991,-0.953 -1.536,-3.279 -1.44,-0.72 z m -25.92,0.6 c 1.342,0.284 3.057,0.382 3.48,-0.84 -0.881,-0.815 -3.817,-1.573 -3.48,0.84 z m -8.4,-0.48 c -0.139,1.624 2.156,2.273 2.4,0.6 -0.311,-0.664 -1.606,-1.161 -2.4,-0.6 z m 15,0.361 c -0.052,0.412 0.047,0.672 0.12,0.96 0.739,0.287 1.645,-0.05 1.68,-0.841 -0.221,-0.647 -1.409,-0.563 -1.8,-0.119 z m -9.36,0.719 c -0.198,0.839 1.307,1.773 2.28,1.08 0.227,-0.457 0.053,-1.041 -0.12,-1.44 -0.786,-0.443 -2.002,-0.311 -2.16,0.36 z m 14.64,0.6 c 0.395,0.783 1.955,0.512 2.28,-0.12 -0.159,-1.16 -2.293,-1.311 -2.28,0.12 z m 11.4,-0.84 c 0.105,0.495 0.192,1.008 0.6,1.2 0.725,-0.034 1.163,-0.357 1.08,-1.2 -0.39,-0.139 -1.306,-0.225 -1.68,0 z m -33.96,0.361 c -0.317,0.362 -1.021,0.338 -1.08,0.96 0.389,0.791 1.885,1.561 2.64,0.6 -0.227,-0.813 -0.912,-1.168 -1.56,-1.56 z m 13.8,0.96 c 0.118,0.738 1.315,0.95 2.16,0.479 -0.12,-1.317 -2.398,-1.979 -2.16,-0.479 z m -8.4,1.559 c 0.454,0.146 1.278,0.427 1.8,0.12 0.027,-0.093 0.003,-0.236 0.12,-0.24 0.111,-1.567 -2.121,-1.428 -1.92,0.12 z m 7.68,0.24 c 0.203,-1.037 -1.149,-1.545 -2.4,-1.56 0.006,0.565 -0.387,0.732 -0.36,1.319 0.492,0.94 2.525,1.442 2.76,0.241 z m 6.12,-1.08 c 0.306,0.614 0.392,1.448 1.08,1.68 0.668,-0.451 1.264,-0.976 1.32,-2.04 -0.785,-0.267 -1.934,-0.069 -2.4,0.36 z m 16.68,0.36 c -0.275,0.408 -0.221,0.873 0,1.319 0.385,-0.095 0.935,-1.171 0.36,-1.44 -0.02,0.141 -0.189,0.131 -0.36,0.121 z m -2.64,3.121 c 2.119,0.077 1.14,-2.575 -0.36,-2.521 -0.256,0.81 -0.035,1.983 0.36,2.521 z M 253,647.63 c 0.443,0.043 0.502,-0.298 0.6,-0.6 -0.347,0.053 -0.547,0.253 -0.6,0.6 z m -21.48,0.36 c 0.828,0.544 2.306,0.865 3,0 -0.166,-1.073 -2.861,-1.228 -3,0 z M 223,647.87 c -0.07,1.403 1.949,2.044 2.64,0.96 -0.193,-1.177 -1.421,-1.068 -2.64,-0.96 z"
         id="path9270" /><path
         style="clip-rule:evenodd;fill:#9d2632;fill-rule:evenodd"
         d="m 166.48,598.31 c 1.32,0 2.64,0 3.96,0 0.093,0.387 0.251,0.709 0.48,0.96 1.159,-0.121 2.055,-0.505 2.88,-0.96 0.793,0.672 -0.365,1.127 -0.24,2.159 0.552,0.121 1.527,0.348 2.04,0.12 -0.028,-1.132 -0.992,-1.327 -1.2,-2.279 1.014,-0.054 2.013,-0.093 2.16,0.72 0.421,-0.818 1.701,-0.779 3,-0.72 0.06,0.5 -0.351,0.529 -0.24,1.079 0.145,0.42 1.048,0.57 1.44,0.36 0.284,-0.235 0.244,-0.796 0.24,-1.319 0.874,-0.115 1.25,0.269 1.8,0.479 2.325,-0.692 4.683,0.033 5.4,1.68 0.624,-0.096 1.086,-0.352 1.56,-0.6 0.277,-0.338 -0.417,-0.472 -0.24,-1.08 0.516,-0.626 1.866,-0.275 2.76,-0.24 0.426,0.935 1.681,1.039 2.52,1.561 0.882,-0.277 1.001,-1.319 2.16,-1.32 -0.225,0.774 -1.03,0.97 -1.08,1.92 0.345,0.454 1.447,0.153 2.16,0.24 -0.123,-0.917 -0.674,-1.406 -0.84,-2.28 0.999,0.629 2.197,0.417 3.72,0.6 0.496,0.561 1.556,1.144 1.56,1.801 -2.937,0.846 -6.362,0.637 -9.24,1.44 -0.508,0.142 -0.936,0.531 -1.44,0.601 -0.969,0.132 -1.983,-0.349 -2.88,-0.24 -0.701,0.085 -1.054,0.661 -1.8,0.6 0.105,-0.335 0.287,-0.593 0.36,-0.96 -0.264,-1.241 -2.344,-1.452 -2.4,0.12 0.472,0.209 1.13,0.229 1.68,0.36 0.249,0.367 -0.357,0.708 -0.36,1.2 0.743,0.337 2.258,-0.098 3,0.239 -0.475,1.685 -3.176,1.145 -4.56,1.92 0.133,1.067 1.448,0.952 2.64,0.961 0.506,-0.055 0.553,-0.568 0.96,-0.721 1.333,-0.731 4.975,0.332 5.16,-0.96 0.181,-1.259 -2.179,-0.969 -3.24,-0.72 0.038,-1.792 1.978,-1.151 3.84,-1.32 1.388,-0.126 2.872,-0.509 4.2,-0.72 0.761,-0.121 1.499,-0.161 2.16,-0.36 0.566,-0.17 1.102,-0.76 1.68,-0.48 0.336,0.484 -0.127,1.023 0,1.68 0.478,0.211 1.062,0.251 1.44,0 0.211,-0.741 -0.8,-0.732 -0.48,-1.2 0.928,-0.029 1.67,-0.338 2.52,-0.12 0.649,0.456 0.84,2.087 0.24,2.761 0.218,0.781 0.74,1.26 1.08,1.92 -0.393,1.526 -0.481,3.432 0,4.92 -0.094,0.546 -0.752,0.527 -0.96,0.96 0.161,0.8 0.932,0.988 1.08,1.8 -0.643,0.797 -3.007,-0.127 -3.48,0.84 0.189,1.011 1.603,0.798 2.16,1.44 0.009,0.608 0.028,1.229 -0.24,1.56 -0.015,0.562 -0.175,-0.131 -0.48,0 -0.45,0.43 -1.032,0.729 -1.2,1.44 0.124,0.596 0.653,0.787 1.441,0.72 0.356,0.484 0.811,0.869 0.96,1.561 0.121,0.341 0.915,0.438 0.6,0.84 -0.817,-0.019 -1.835,-0.192 -1.92,0.72 -0.067,0.725 0.916,0.979 0.96,1.44 0.19,1.997 -2.188,0.232 -3.36,0.84 -0.259,0.653 0.849,0.886 1.08,1.44 -0.114,0.566 -0.242,1.118 -0.72,1.32 -0.736,0.192 -2.137,-1.26 -2.52,-0.12 -0.213,0.636 0.746,1.154 0.84,1.68 0.178,0.993 -0.717,1.49 -0.72,2.16 -0.006,1.377 2.702,2.907 2.88,4.08 -0.902,-0.123 -2.153,-0.558 -2.28,0.601 0.266,0.55 1.093,0.675 1.8,0.6 0.554,-0.059 0.873,-0.64 1.2,-0.36 0.28,0.34 0.017,0.906 -0.12,1.2 0.103,0.457 0.799,0.321 1.08,0.6 0.201,0.919 0.338,1.902 1.08,2.28 -0.638,0.282 -1.5,0.341 -1.32,1.44 0.168,0.471 1.138,0.142 1.68,0.24 0.328,1.021 0.168,1.739 -0.24,2.519 -0.039,0.559 0.372,0.668 0.48,1.08 0,4.16 0,8.32 0,12.48 -0.315,0.604 -0.774,1.065 -1.2,1.56 1.129,1.788 -0.753,2.653 -2.64,4.08 -1.67,1.263 -2.853,2.008 -5.28,2.16 -1.166,0.073 -2.793,0.263 -3.96,0.12 -5.559,-0.681 -14.36,0.109 -20.52,-0.24 -1.588,-0.091 -3.325,-0.534 -4.68,-0.48 -1.292,0.052 -2.755,0.639 -3.6,-0.359 -0.341,-0.021 0.145,0.785 -0.36,0.6 -0.435,-1.271 -0.24,-2.743 -0.24,-4.08 0,-1.446 -0.188,-2.963 0,-4.32 0.034,-0.241 0.223,-0.486 0.24,-0.72 0.065,-0.881 -0.211,-1.668 -0.24,-2.52 -0.069,-2.045 0.355,-4.224 0.24,-6.36 0.468,-0.252 1.38,-0.06 2.04,-0.12 0.476,0.044 0.281,0.759 0.72,0.84 0.4,0 0.8,0 1.2,0 0.347,-0.315 -1.066,-0.523 -0.72,-0.84 5.027,0.026 9.847,0.24 15.12,0.24 2.039,0 4.085,0.18 6,-0.24 0.096,-1.425 0.38,-2.66 1.44,-3.12 -0.189,-0.45 -0.767,-0.513 -1.32,-0.6 -0.89,-1.07 -1.99,-1.93 -2.88,-3 -1.213,-0.307 -2.894,-0.146 -4.2,-0.36 -0.207,-0.862 -1.912,-1.926 -2.4,-0.72 -0.152,0.632 0.811,0.149 0.96,0.48 -0.386,0.44 -1.32,0.239 -2.04,0.239 -0.786,0 -1.605,0 -2.28,0 -0.801,-0.8 -1.842,-0.146 -3,0 -1.774,0.226 -3.928,-0.167 -5.88,0 -0.317,-0.322 -0.485,-0.794 -0.6,-1.319 -0.91,0.05 -0.794,1.125 -1.56,1.319 -1.247,-1.872 -0.2,-5.816 -0.48,-8.16 0.51,0.232 1.503,0.49 1.92,0.12 -0.368,-0.871 -1.404,-1.076 -1.8,-1.92 0.005,-0.755 0.23,-1.289 0.36,-1.92 0.078,-0.557 0.803,0.54 1.08,-0.12 -0.115,-1.005 -1.045,-1.194 -1.44,-1.92 -0.373,-1.174 0.487,-2.159 0.48,-3 -0.005,-0.499 -0.334,-0.78 -0.36,-1.2 1.779,-0.409 3.531,0.224 4.44,1.08 0.63,-0.129 1.072,-0.139 1.56,0.12 0.314,-0.126 0.393,-0.487 0.36,-0.96 1.88,0 3.76,0 5.64,0 0.235,0.445 0.426,0.935 0.72,1.32 0.6,0 1.2,0 1.8,0 0.039,-0.559 -0.239,-0.801 -0.24,-1.32 1.121,0.184 1.991,-0.247 3,0 0.833,0.204 0.978,1.215 2.28,0.84 0.38,-0.109 0.54,-0.398 0.72,-0.84 1.87,-0.145 4.51,-2.9 4.68,-4.439 0.289,-2.612 -2.054,-2.627 -4.08,-3.24 -2.554,1.214 -6.874,0.448 -8.88,-0.721 -0.603,0.157 -0.654,0.867 -0.96,1.32 -1.408,-0.388 -4.398,0.121 -5.76,-0.6 -0.675,-0.357 -0.993,-1.849 -1.92,-1.681 -0.795,0.144 -0.719,1.22 -0.72,2.04 -0.904,-0.056 -2.132,0.213 -2.28,-0.6 0.224,-0.912 1.263,-0.635 1.32,-1.56 0.049,-0.797 -0.763,-1.154 -1.56,-1.56 0,-1.32 0,-2.64 0,-3.96 1.473,-0.327 3.161,-0.439 4.68,-0.72 -0.317,0.522 -0.512,1.168 -0.84,1.68 0.311,0.609 1.085,0.755 2.04,0.72 1.028,-0.606 0.207,-2.06 -0.12,-2.64 1.103,-0.337 2.482,-0.398 3.96,-0.36 -0.277,0.684 -1.1,0.82 -1.8,1.08 0.259,1.106 -0.766,1.345 -0.72,2.28 0.047,0.962 1.08,1.39 1.68,1.2 1.304,-0.41 0.327,-1.982 -0.36,-2.641 0.803,-0.477 2.219,-0.341 3.48,-0.359 0.48,-1.067 -1.237,-1.425 -1.08,-2.16 1.586,-0.157 3.214,-0.727 4.8,-1.08 1.611,-0.358 3.349,-0.393 4.44,-1.439 -0.525,-0.875 -2.205,-0.596 -3.48,-0.721 -0.091,-2.32 -3.128,-0.409 -4.32,-0.72 -0.299,-0.448 -0.014,-1.165 0,-1.68 -0.445,-0.202 -0.885,0.632 -0.72,1.44 -1.269,-0.188 -2.009,0.151 -2.52,0.72 -1.05,-0.189 -1.242,-1.238 -2.04,-1.68 -0.918,-0.078 -1.385,0.295 -2.16,0.36 0.469,-1.685 -1.576,-3.059 -2.04,-1.32 0.524,0.916 0.994,1.887 0.96,3.36 -1.074,0.034 -1.729,-0.351 -2.04,-1.08 0.2,-0.32 0.687,-0.354 0.72,-0.84 -0.325,-0.396 -0.84,-0.6 -1.56,-0.601 -0.322,0.203 0.438,0.735 0,1.08 -0.367,-0.087 -0.353,0.207 -0.72,0.12 -0.516,-0.59 0.32,-1.502 -0.24,-2.28 0.688,-0.352 1.65,-0.43 2.04,-1.08 -0.022,-0.58 -0.58,-0.621 -0.601,-1.201 z m 15.72,2.88 c 0.677,-0.123 1.504,-0.096 1.44,-0.96 -0.739,-0.38 -1.553,0.099 -1.44,0.96 z m 8.52,0.72 c 0.594,0.272 1.672,0.102 2.04,-0.24 -0.122,-1.51 -2.48,-1.15 -2.04,0.24 z m 6.6,1.8 c -0.68,0.035 -2.155,0.633 -2.28,1.2 1.236,0.111 2.484,0.758 3.6,0.6 0.279,-0.293 0.315,-1.014 0.12,-1.44 -0.399,-0.225 -0.93,-0.385 -1.44,-0.36 z m 2.28,2.521 c 0.387,0.886 2.055,1.644 2.28,0.12 -0.281,-0.86 -1.976,-1.206 -2.28,-0.12 z m -5.52,1.439 c 0.469,0.696 1.985,0.809 2.4,0 0.046,-1.439 -2.704,-2.204 -2.4,0 z m -15,0 c 0.95,1.188 2.643,-0.268 3.84,0 -0.255,-1.408 -3.542,-1.245 -3.84,0 z m 9.6,0.48 c 0.355,0.768 1.829,1.354 2.64,0.6 0.192,-1.761 -2.443,-2.516 -2.64,-0.6 z m 14.4,0.241 c 0.6,0 1.2,0 1.8,0 -0.088,-0.952 -1.092,-0.988 -2.04,-1.08 -0.063,0.503 0.21,0.67 0.24,1.08 z m -18.24,1.799 c 1.473,-0.213 0.529,-2.96 -1.08,-2.28 -0.67,0.996 0.208,2.406 1.08,2.28 z m 12.48,-0.959 c 0.388,0.607 1.667,0.327 2.28,0.12 0.072,-1.426 -2.681,-2.343 -2.28,-0.12 z m -5.4,0.839 c 0.301,1.008 1.995,1.019 2.16,0.12 0.076,-0.41 -1.229,-1.689 -1.68,-1.681 -0.456,0.606 -0.646,1.006 -0.48,1.561 z M 178,610.79 c 0.752,0.301 1.692,-0.003 2.16,-0.359 0.553,-2.677 -3.553,-1.666 -2.16,0.359 z m 22.2,-0.48 c 0.044,0.69 1.101,1.108 1.92,1.319 0.026,-0.094 0.101,-0.14 0.24,-0.12 1.343,-1.837 -2.283,-3.111 -2.16,-1.199 z m -13.8,-0.48 c -0.14,1.335 1.14,1.773 2.28,1.44 0.097,-1.276 -1.217,-2.083 -2.28,-1.44 z m -5.28,2.521 c 0.71,0.069 1.145,-0.136 1.56,-0.36 0.364,-2.345 -2.745,-1.239 -1.56,0.36 z m 13.44,-0.96 c 0.279,0.796 2.344,1.114 2.52,0 -0.334,-0.929 -2.292,-1.206 -2.52,0 z m -26.04,1.799 c 1.569,-0.288 0.451,-3.138 -1.2,-2.4 -1.479,0.661 0.324,2.561 1.2,2.4 z m 34.56,-1.44 c 0.395,0.646 1.411,0.669 2.28,0.84 0.069,-0.251 0.297,-0.342 0.24,-0.72 -0.449,-0.697 -2.191,-1.28 -2.52,-0.12 z m -27.72,0.72 c 0.355,0.716 1.776,0.757 2.4,0.24 -0.054,-1.465 -2.276,-1.983 -2.4,-0.24 z m 13.68,-0.36 c 0.4,0.959 2.436,0.986 2.28,-0.48 -0.599,-0.61 -2.144,-0.401 -2.28,0.48 z m -18.72,0 c -0.486,0.512 -0.351,1.554 0,2.16 0.787,0.026 1.403,-0.117 2.04,-0.24 -0.058,-1.262 -0.758,-1.882 -2.04,-1.92 z m 13.8,0.241 c -0.023,0.583 -0.027,1.147 0.24,1.439 1.088,0.118 2.051,-0.361 1.56,-1.439 -0.358,-0.337 -1.442,-0.337 -1.8,0 z m 13.44,0.359 c 0.232,0.543 1.772,0.873 2.28,0.36 -0.25,-0.731 -1.886,-1.508 -2.28,-0.36 z m -18,0 c -0.462,-0.036 -0.998,0.584 -0.96,1.2 0.039,0.631 1.015,1.538 1.92,0.84 -0.066,-0.918 -0.28,-1.985 -0.96,-2.04 z m 12.96,1.44 c 0.579,0.293 1.436,-0.051 2.04,-0.12 0.047,-1.494 -2.698,-1.541 -2.04,0.12 z m 8.16,-0.24 c -0.07,0.39 0.081,0.558 0.12,0.84 0.908,-0.068 1.224,0.456 1.92,0.601 1.649,-1.013 -0.839,-2.451 -2.04,-1.441 z m -27.48,0.24 c -0.343,0.627 0.319,1.277 0.36,1.92 0.699,-0.06 1.362,-0.158 1.68,-0.601 0.201,-1.185 -1.337,-2.195 -2.04,-1.319 z m 13.92,-0.12 c -0.154,1.234 0.726,1.434 1.8,1.439 0.317,-1.001 -0.951,-1.997 -1.8,-1.439 z m -5.4,0.48 c -0.323,0.207 -0.329,1.203 -0.12,1.56 0.468,0.252 1.38,0.06 2.04,0.12 -0.06,-1.139 -0.757,-1.643 -1.92,-1.68 z m 13.56,0.96 c 0.062,0.792 1.846,1.53 2.64,0.721 0.301,-1.889 -2.761,-2.259 -2.64,-0.721 z m -5.4,0 c -0.079,1.467 1.433,2.188 2.52,1.44 0.067,-1.348 -1.41,-2.017 -2.52,-1.44 z m 8.28,1.44 c 0.247,0.873 1.695,0.545 2.76,0.6 0.224,-1.377 -2.502,-1.858 -2.76,-0.6 z m -3.96,0.6 c -0.247,-1.354 -2.12,0.023 -0.96,0.721 0.644,0.083 0.759,-0.362 0.96,-0.721 z m 7.32,0.36 c -0.359,0.486 -0.099,1.148 0.24,1.561 0.787,0.026 1.403,-0.117 2.04,-0.24 0.233,-1.42 -1.21,-1.579 -2.28,-1.321 z m -6.24,0.24 c 0.288,-0.288 -0.394,-0.31 -0.36,-0.12 -0.002,-0.009 0.406,0.074 0.36,0.12 z m 0.72,1.68 c 0.499,0.401 1.793,0.52 2.4,0.12 -0.079,-1.001 -2.699,-2.217 -2.4,-0.12 z m -5.76,0.36 c -0.124,1.001 1.649,1.23 2.64,0.72 -0.057,-1.322 -2.484,-1.975 -2.64,-0.72 z m 8.4,0.48 c 0.169,1.193 2.183,1.552 3,0.721 -0.302,-0.877 -2.044,-1.258 -3,-0.721 z m -5.16,1.44 c 0.249,0.522 1.523,0.852 2.04,0.36 0.103,-1.541 -1.844,-1.846 -2.04,-0.36 z m 8.4,0.361 c -0.134,0.994 2.018,1.132 2.88,0.72 -0.08,-1.264 -2.725,-1.868 -2.88,-0.72 z m -13.8,0.599 c 0.385,0.616 1.551,0.884 2.28,0.479 0.08,-1.354 -2.248,-2.265 -2.28,-0.479 z m 8.52,0.6 c 0.322,0.578 1.561,0.81 2.28,0.601 0.314,-1.495 -2.008,-1.713 -2.28,-0.601 z m -5.04,0.12 c -0.826,1.052 1.285,2.126 2.04,1.2 -0.164,-0.916 -1.105,-1.054 -2.04,-1.2 z M 172,624.351 c -0.267,0.292 -0.263,0.856 -0.24,1.439 0.952,1.151 3.221,0.353 3.6,2.16 0.622,-0.058 1.489,0.129 1.92,-0.12 -0.973,-1.947 -3.128,-2.712 -5.28,-3.479 z m 29.28,2.16 c 0.447,-0.041 1.203,-0.698 1.08,-1.32 -0.118,-0.593 -1.253,-1.066 -2.16,-0.721 -1.644,0.628 0.166,2.124 1.08,2.041 z m -15.36,-0.601 c 0.544,0.216 1.435,0.085 2.16,0.12 0.231,-1.589 -2.846,-2.025 -2.16,-0.12 z m -19.56,0.601 c 0.122,0.576 1.6,1.082 2.28,0.6 0.19,-1.521 -2.633,-2.269 -2.28,-0.6 z m 13.8,-0.481 c 0.346,0.768 1.456,1.16 2.52,0.84 -0.087,-1.01 -1.849,-1.878 -2.52,-0.84 z m 13.92,0.241 c 0.303,0.297 0.644,0.556 1.2,0.6 0.078,-0.445 0.365,-0.754 0.12,-1.2 -0.549,-0.25 -1.281,-0.022 -1.32,0.6 z m -2.76,0.96 c 0.004,-0.056 -1.114,-1.173 -1.44,-1.2 -0.691,-0.059 -1.167,0.221 -1.08,1.32 0.616,0.429 2.442,0.802 2.52,-0.12 z m 7.08,0.239 c -0.037,-0.727 -1.926,-0.344 -0.84,0.601 0.409,-0.105 0.855,-0.32 0.84,-0.601 z m -28.92,0.6 c -0.003,0.767 1.381,1.528 2.28,0.96 0.146,-1.543 -2.273,-2.497 -2.28,-0.96 z m 13.8,-0.24 c 0.23,0.251 0.427,0.533 0.84,0.601 0.278,-0.243 0.641,-0.4 0.72,-0.841 -0.332,-0.464 -1.507,-0.523 -1.56,0.24 z m 15.84,0.36 c 0.278,0.038 0.461,-0.02 0.6,-0.12 0.056,-0.376 -0.302,-0.339 -0.48,-0.481 -0.176,0.284 -0.253,0.225 -0.12,0.601 z m -7.32,0.12 c 0.156,0.988 1.56,1.511 2.52,0.96 -0.077,-0.942 -1.828,-1.791 -2.52,-0.96 z m -13.8,0.48 c 0.002,0.73 1.648,1.197 2.4,0.721 0.22,-1.615 -2.403,-1.925 -2.4,-0.721 z m 8.76,0.24 c -0.199,1.1 1.099,1.64 1.8,1.08 0.063,-0.992 -1.249,-1.81 -1.8,-1.08 z m -14.28,0.241 c 0.037,0.562 0.326,0.874 0.72,1.08 2.156,-0.645 2.782,2.339 4.56,1.68 -0.293,-1.643 -3.914,-3.641 -5.28,-2.76 z m 22.32,1.08 c 0.479,0.274 1.211,0.403 1.8,0.239 -0.289,-0.511 -0.549,-1.051 -1.32,-1.079 -0.287,0.152 -0.489,0.39 -0.48,0.84 z m -11.64,0.359 c 0.197,-0.825 -1.142,-1.169 -1.68,-0.84 -1.194,0.731 1.384,2.078 1.68,0.84 z m 6.12,0.6 c 0.408,0.192 1.512,0.192 1.92,0 -0.212,-1.361 -1.619,-1.119 -1.92,0 z m -21.24,0.121 c -0.01,-0.67 -0.382,-0.979 -0.96,-1.08 0.073,0.606 0.218,1.141 0.96,1.08 z m 1.2,-0.601 c 0.083,-0.322 -0.248,-0.232 -0.36,-0.36 -0.022,0.262 0.099,0.383 0.36,0.36 z m 28.56,0.96 c 0.332,0.469 1.452,0.813 1.8,0.24 -0.095,-0.769 -1.621,-1.237 -1.8,-0.24 z m -27,-0.48 c -1.833,0.029 -0.092,2.703 1.56,1.68 -0.157,-0.43 -0.977,-1.689 -1.56,-1.68 z m 13.2,0.72 c 0.384,0.476 1.001,0.338 1.44,0 -0.065,-0.861 -1.404,-0.944 -1.44,0 z m 8.16,0.72 c 0.15,0.761 1.811,0.771 2.4,0.36 -0.218,-1.062 -1.917,-1.447 -2.4,-0.36 z m -12.96,-0.6 c -1.267,0.853 -2.079,2.161 -3,3.36 0.609,0.528 1.709,0.623 2.28,0 0.328,-1.153 1.137,-1.823 1.8,-2.641 -0.303,-0.296 -0.578,-0.62 -1.08,-0.719 z m -6.12,1.92 c 0.429,0.347 1.884,0.398 2.16,-0.12 -0.435,-0.558 -2.228,-1.511 -2.16,0.12 z m 14.16,-0.36 c 0.017,-0.142 0.213,-0.271 0,-0.359 -0.017,0.141 -0.214,0.271 0,0.359 z m 8.04,0.721 c 0.562,-0.038 1.207,0.007 1.44,-0.36 -0.286,-0.787 -1.437,-0.647 -1.44,0.36 z m -13.68,0.239 c 0.427,0.363 1.741,0.348 1.68,-0.479 -0.49,-0.71 -1.797,-0.807 -1.68,0.479 z m -13.68,0 c 0.542,0.139 0.896,0.465 1.68,0.36 0.574,-0.841 -1.798,-1.757 -1.68,-0.36 z m 22.08,0.841 c 0.211,0.783 1.998,0.857 2.16,-0.24 -0.401,-1.179 -2.491,-0.988 -2.16,0.24 z m 8.16,0.119 c 0.216,0.859 1.624,1.413 2.4,0.96 0.219,-1.331 -1.534,-1.445 -2.4,-0.96 z m -13.2,0.12 c -0.032,0.495 0.754,0.599 1.08,0.36 0.032,-0.495 -0.753,-0.598 -1.08,-0.36 z m -14.4,0.72 c 0.431,0.25 1.298,0.062 1.92,0.12 0.211,-1.169 -1.845,-0.764 -1.92,-0.12 z m 22.68,0.72 c 0.312,-0.028 0.979,-0.776 0.36,-0.96 -0.106,0.261 -0.724,0.627 -0.36,0.96 z m -14.16,-0.24 c 0.188,0.674 1.945,0.653 2.28,0.12 0.044,-0.807 -2.287,-1.182 -2.28,-0.12 z m -13.92,0.24 c 0.08,0 0.16,0 0.24,0 0,-0.08 0,-0.16 0,-0.24 -0.08,0 -0.16,0 -0.24,0 0,0.08 0,0.16 0,0.24 z m 22.8,0.6 c 0.74,0.119 0.708,-0.802 0,-0.72 -0.275,0.264 -0.195,0.399 0,0.72 z m -14.28,0.36 c 0.589,0.069 0.884,-0.155 0.96,-0.601 -0.433,-0.403 -1.272,-0.026 -0.96,0.601 z m 8.52,0.84 c 0.553,-0.007 1.173,0.054 1.56,-0.12 0.095,-1.418 -2.12,-1.264 -1.56,0.12 z m 13.56,-0.599 c 0.425,0.612 1.833,0.832 2.28,0.12 -0.022,-0.986 -2.09,-0.947 -2.28,-0.12 z m -27.6,0.12 c 0.239,0.12 0.189,0.53 0.6,0.479 0.287,-0.152 0.488,-0.392 0.48,-0.84 -0.431,0.049 -0.929,0.031 -1.08,0.361 z m 22.32,0.479 c 0.029,0.741 1.32,1.055 1.8,0.6 -0.253,-0.747 -1.276,-1.442 -1.8,-0.6 z m -20.64,-0.12 c 0.08,0 0.16,0 0.24,0 0,-0.08 0,-0.16 0,-0.24 -0.08,0 -0.16,0 -0.24,0 0,0.08 0,0.16 0,0.24 z m 6.72,1.08 c 0.419,0.756 1.689,0.636 2.16,0 -0.156,-1.606 -1.953,-1.478 -2.16,0 z m 22.2,-0.12 c 0.242,0.518 1.025,0.494 1.68,0.601 0.069,-0.251 0.298,-0.343 0.24,-0.721 -0.235,-0.719 -1.782,-0.594 -1.92,0.12 z m -13.68,0.12 c 0.145,0.795 1.645,1.166 2.04,0.36 -0.346,-0.405 -1.692,-1.435 -2.04,-0.36 z m -12,0.72 c 0.221,-1.237 -2.575,-1.477 -1.92,0.721 0.902,-0.149 1.795,-0.018 1.92,-0.721 z m 20.4,0.48 c 0.476,0.154 1.907,0.337 2.04,-0.24 -0.388,-0.517 -1.922,-0.528 -2.04,0.24 z m 8.28,-0.12 c -0.028,0.468 0.258,0.622 0.36,0.96 0.646,-0.154 1.51,-0.09 1.8,-0.6 -0.406,-0.523 -1.548,-1.082 -2.16,-0.36 z m -13.92,0.481 c 0.083,0.827 1.411,1.171 2.04,0.72 -0.016,-1.107 -1.289,-1.291 -2.04,-0.72 z m 12.48,0.479 c 0.74,0.118 0.708,-0.802 0,-0.72 -0.164,0.154 -0.164,0.567 0,0.72 z m -4.08,0.84 c 0.636,0.264 1.764,0.55 2.4,0.12 -0.009,-0.209 0.027,-0.373 0.12,-0.48 -0.404,-0.848 -2.635,-1.154 -2.52,0.36 z m -5.16,0.84 c 0.64,0 1.28,0 1.92,0 0.111,-1.102 -2.143,-1.451 -1.92,0 z m 8.4,-0.12 c -0.075,0.465 -0.099,0.494 0.12,0.841 0.484,-0.156 0.8,-0.48 0.84,-1.08 -0.432,-0.033 -0.578,0.221 -0.96,0.239 z m -5.4,1.56 c 0.229,0.379 1.065,0.714 1.44,0.24 0.241,-1.14 -1.45,-1.251 -1.44,-0.24 z M 169,651.351 c 0.018,-0.143 0.214,-0.272 0,-0.36 -0.017,0.141 -0.213,0.272 0,0.36 z"
         id="path9276" /><path
         style="clip-rule:evenodd;fill:#9d2632;fill-rule:evenodd"
         d="m 256.24,599.51 c 0.278,0.034 0.276,0.321 0.12,0.48 -0.278,-0.033 -0.275,-0.32 -0.12,-0.48 z"
         id="path8974" /></g><g
       id="g9585"
       transform="matrix(4.3764543,0,0,4.3764543,-972.48721,-2113.1823)"><path
         style="clip-rule:evenodd;fill:#9d2632;fill-rule:evenodd"
         d="m 284.92,598.55 c -0.068,0.332 -0.127,0.674 -0.6,0.601 -0.027,-0.428 0.173,-0.628 0.6,-0.601 z"
         id="path8954" /><path
         style="clip-rule:evenodd;fill:#9d2632;fill-rule:evenodd"
         d="m 335.44,598.67 c 0.096,0.456 -0.567,0.153 -0.84,0.24 0.007,-0.283 0.632,-0.556 0.84,-0.24 z"
         id="path8956" /><path
         style="clip-rule:evenodd;fill:#9d2632;fill-rule:evenodd"
         d="m 342.161,598.79 c -0.034,0.278 -0.321,0.276 -0.48,0.12 0.033,-0.278 0.32,-0.275 0.48,-0.12 z"
         id="path8962" /><path
         style="clip-rule:evenodd;fill:#9d2632;fill-rule:evenodd"
         d="m 299.92,599.03 c -0.048,-0.233 0.546,-0.176 0.36,0.12 -0.08,0 -0.16,0 -0.24,0 0.022,-0.102 -0.046,-0.113 -0.12,-0.12 z"
         id="path8966" /><path
         style="clip-rule:evenodd;fill:#9d2632;fill-rule:evenodd"
         d="m 303.16,600.351 c -0.428,-0.132 -0.708,-0.412 -0.84,-0.841 0.516,-0.735 0.919,0.006 0.84,0.841 z"
         id="path8968" /><path
         style="clip-rule:evenodd;fill:#9d2632;fill-rule:evenodd"
         d="m 318.64,603.231 c 0.08,0 0.16,0 0.24,0 -0.022,0.102 0.047,0.113 0.12,0.12 0,0.08 0,0.159 0,0.239 -0.102,-0.021 -0.113,0.047 -0.12,0.12 -0.08,0 -0.16,0 -0.24,0 0.022,-0.102 -0.046,-0.113 -0.12,-0.12 0,-0.08 0,-0.159 0,-0.239 0.103,0.021 0.113,-0.047 0.12,-0.12 z"
         id="path8996" /><path
         style="clip-rule:evenodd;fill:#9d2632;fill-rule:evenodd"
         d="m 322.36,603.231 c 0.08,0 0.16,0 0.24,0 -0.022,0.102 0.046,0.113 0.12,0.12 0,0.08 0,0.159 0,0.239 -0.102,-0.021 -0.113,0.047 -0.12,0.12 -0.08,0 -0.16,0 -0.24,0 0.022,-0.102 -0.047,-0.113 -0.12,-0.12 0,-0.08 0,-0.159 0,-0.239 0.102,0.021 0.113,-0.047 0.12,-0.12 z"
         id="path8998" /><path
         style="clip-rule:evenodd;fill:#9d2632;fill-rule:evenodd"
         d="m 324.4,603.71 c 0.027,0.428 -0.172,0.628 -0.6,0.6 0.015,-0.216 -0.147,-0.254 -0.12,-0.48 0.283,0.003 0.354,-0.206 0.72,-0.12 z"
         id="path9002" /><path
         style="clip-rule:evenodd;fill:#9d2632;fill-rule:evenodd"
         d="m 312.4,604.79 c 0.911,0.05 1.29,0.63 1.56,1.32 -0.401,0.278 -1.105,0.255 -1.8,0.24 0.025,-0.576 0.321,-0.878 0.24,-1.56 z"
         id="path9008" /><path
         style="clip-rule:evenodd;fill:#9d2632;fill-rule:evenodd"
         d="m 304.84,606.71 c 0.293,0.075 0.535,0.502 0,0.48 0,-0.16 0,-0.32 0,-0.48 z"
         id="path9016" /><path
         style="clip-rule:evenodd;fill:#9d2632;fill-rule:evenodd"
         d="m 294.28,608.03 c -0.047,-0.233 0.546,-0.176 0.36,0.12 -0.08,0 -0.16,0 -0.24,0 0.022,-0.102 -0.047,-0.113 -0.12,-0.12 z"
         id="path9022" /><path
         style="clip-rule:evenodd;fill:#9d2632;fill-rule:evenodd"
         d="m 304.84,608.51 c 0.462,-0.094 0.462,0.575 0,0.48 0,-0.16 0,-0.32 0,-0.48 z"
         id="path9028" /><path
         style="clip-rule:evenodd;fill:#9d2632;fill-rule:evenodd"
         d="m 304.6,610.55 c 0.018,-0.046 0.254,-0.212 0.36,-0.119 0.237,0.206 -0.529,0.572 -0.36,0.119 z"
         id="path9060" /><path
         style="clip-rule:evenodd;fill:#9d2632;fill-rule:evenodd"
         d="m 302.68,611.99 c 0.603,-0.123 0.658,0.302 0.96,0.479 -0.337,0.33 -1.029,-0.003 -0.96,-0.479 z"
         id="path9070" /><path
         style="clip-rule:evenodd;fill:#9d2632;fill-rule:evenodd"
         d="m 304.6,612.95 c 0.236,0.755 -0.208,1.655 -0.72,2.04 -0.2,0 -0.4,0 -0.6,0 -0.599,-0.792 0.234,-2.558 1.32,-2.04 z"
         id="path9080" /><path
         style="clip-rule:evenodd;fill:#9d2632;fill-rule:evenodd"
         d="m 294.04,616.55 c 0.241,-0.04 0.375,0.025 0.36,0.24 -0.12,0 -0.24,0 -0.36,0 0,-0.08 0,-0.16 0,-0.24 z"
         id="path9094" /><path
         style="clip-rule:evenodd;fill:#9d2632;fill-rule:evenodd"
         d="m 304.12,616.67 c 0.059,-0.165 1.082,-0.291 0.961,0.12 -0.446,0.085 -0.516,-0.205 -0.961,-0.12 z"
         id="path9096" /><path
         style="clip-rule:evenodd;fill:#9d2632;fill-rule:evenodd"
         d="m 294.28,649.31 c 0.2,0 0.4,0 0.6,0 0.123,0.403 -0.373,0.187 -0.6,0.239 0,-0.078 0,-0.158 0,-0.239 z"
         id="path9176" /><path
         style="clip-rule:evenodd;fill:#9d2632;fill-rule:evenodd"
         d="m 304.48,650.271 c 0.241,-0.041 0.375,0.024 0.36,0.24 -0.12,0 -0.24,0 -0.36,0 0,-0.08 0,-0.16 0,-0.24 z"
         id="path9178" /><path
         style="clip-rule:evenodd;fill:#9d2632;fill-rule:evenodd"
         d="m 294.521,652.19 c 0.204,-0.044 0.226,0.094 0.24,0.24 -0.102,-0.023 -0.113,0.047 -0.12,0.119 -0.142,-0.018 -0.102,-0.218 -0.12,-0.359 z"
         id="path9180" /><path
         style="clip-rule:evenodd;fill:#9d2632;fill-rule:evenodd"
         d="m 304.24,666.591 c -0.029,0.211 -0.207,0.273 -0.48,0.239 -0.018,-0.336 0.34,-0.391 0.48,-0.239 z"
         id="path9256" /><path
         style="clip-rule:evenodd;fill:#9d2632;fill-rule:evenodd"
         d="m 313.121,598.31 c 1.32,0 2.64,0 3.96,0 0.093,0.387 0.25,0.709 0.48,0.96 1.159,-0.121 2.055,-0.505 2.88,-0.96 0.793,0.672 -0.365,1.127 -0.24,2.159 0.552,0.121 1.527,0.348 2.04,0.12 -0.028,-1.132 -0.992,-1.327 -1.2,-2.279 1.014,-0.054 2.013,-0.093 2.16,0.72 0.421,-0.818 1.702,-0.779 3,-0.72 0.06,0.5 -0.351,0.529 -0.24,1.079 0.117,0.444 0.753,0.367 1.2,0.481 0.469,-0.171 0.526,-0.754 0.48,-1.439 0.875,-0.115 1.25,0.269 1.8,0.479 2.228,-0.627 4.727,-0.095 5.28,1.68 0.664,-0.096 1.203,-0.317 1.68,-0.6 0.277,-0.338 -0.417,-0.472 -0.24,-1.08 0.516,-0.626 1.865,-0.275 2.76,-0.24 0.426,0.935 1.682,1.039 2.52,1.561 0.883,-0.277 1.001,-1.319 2.16,-1.32 -0.258,0.742 -1.02,0.979 -1.08,1.92 0.345,0.454 1.447,0.153 2.16,0.24 -0.123,-0.917 -0.674,-1.406 -0.84,-2.28 0.999,0.629 2.197,0.417 3.72,0.6 0.496,0.561 1.556,1.144 1.56,1.801 -2.986,0.871 -6.307,0.604 -9.24,1.44 -0.501,0.143 -0.926,0.53 -1.44,0.601 -0.936,0.128 -1.954,-0.349 -2.88,-0.24 -0.632,0.074 -1.178,0.661 -1.8,0.6 0.105,-0.335 0.288,-0.593 0.36,-0.96 -0.264,-1.241 -2.344,-1.452 -2.4,0.12 0.472,0.209 1.131,0.229 1.68,0.36 0.25,0.367 -0.357,0.708 -0.36,1.2 0.742,0.337 2.257,-0.098 3,0.239 -0.49,1.671 -3.167,1.154 -4.56,1.92 0.133,1.067 1.448,0.952 2.64,0.961 0.505,-0.055 0.552,-0.568 0.96,-0.721 1.333,-0.731 4.974,0.332 5.16,-0.96 0.18,-1.248 -2.195,-0.993 -3.24,-0.72 0.038,-1.792 1.978,-1.151 3.84,-1.32 1.389,-0.126 2.872,-0.509 4.2,-0.72 0.76,-0.121 1.499,-0.161 2.16,-0.36 0.566,-0.17 1.101,-0.76 1.68,-0.48 0.336,0.484 -0.127,1.023 0,1.68 0.478,0.211 1.062,0.251 1.44,0 0.211,-0.741 -0.799,-0.732 -0.48,-1.2 0.928,-0.029 1.67,-0.338 2.52,-0.12 0.629,0.475 0.841,2.086 0.24,2.761 0.228,0.771 0.726,1.274 1.08,1.92 -0.412,1.745 -0.512,3.305 0,4.92 -0.094,0.546 -0.752,0.527 -0.96,0.96 0.161,0.8 0.932,0.988 1.08,1.8 -0.643,0.797 -3.007,-0.127 -3.48,0.84 0.189,1.011 1.603,0.798 2.16,1.44 0.009,0.608 0.028,1.229 -0.24,1.56 -0.015,0.562 -0.174,-0.131 -0.48,0 -0.45,0.43 -1.032,0.729 -1.2,1.44 0.124,0.596 0.652,0.787 1.44,0.72 0.356,0.484 0.812,0.869 0.96,1.561 0.121,0.341 0.915,0.438 0.6,0.84 -0.805,-0.019 -1.835,-0.19 -1.92,0.72 -0.067,0.723 0.919,1.015 0.96,1.44 0.193,2.028 -2.256,0.186 -3.48,0.84 0.047,0.832 0.93,0.829 1.2,1.44 -0.114,0.566 -0.242,1.118 -0.72,1.32 -0.736,0.192 -2.137,-1.26 -2.52,-0.12 -0.214,0.636 0.746,1.154 0.84,1.68 0.178,0.993 -0.717,1.49 -0.72,2.16 -0.006,1.377 2.702,2.907 2.88,4.08 -0.902,-0.123 -2.153,-0.558 -2.28,0.601 0.266,0.55 1.093,0.675 1.8,0.6 0.554,-0.059 0.874,-0.64 1.2,-0.36 0.28,0.34 0.018,0.906 -0.12,1.2 0.103,0.457 0.799,0.321 1.08,0.6 0.202,0.919 0.318,1.923 1.08,2.28 -0.638,0.282 -1.5,0.341 -1.32,1.44 0.169,0.471 1.138,0.142 1.68,0.24 0.328,1.021 0.168,1.739 -0.24,2.519 -0.038,0.559 0.372,0.668 0.48,1.08 0,4.16 0,8.32 0,12.48 -0.357,0.562 -0.747,1.092 -1.2,1.56 0.997,1.562 -0.404,2.304 -1.56,3.24 -1.751,1.418 -3.403,2.815 -6.36,3 -1.221,0.076 -2.681,0.276 -3.96,0.12 -5.536,-0.678 -14.378,0.108 -20.52,-0.24 -1.597,-0.091 -3.23,-0.523 -4.56,-0.48 -1.366,0.045 -2.838,0.651 -3.72,-0.359 -0.341,-0.021 0.145,0.785 -0.36,0.6 -0.434,-1.271 -0.24,-2.743 -0.24,-4.08 0,-1.446 -0.189,-2.963 0,-4.32 0.034,-0.241 0.223,-0.486 0.24,-0.72 0.065,-0.881 -0.211,-1.668 -0.24,-2.52 -0.069,-2.045 0.354,-4.224 0.24,-6.36 0.468,-0.252 1.38,-0.06 2.04,-0.12 0.476,0.044 0.282,0.759 0.72,0.84 0.4,0 0.8,0 1.2,0 0.347,-0.315 -1.066,-0.523 -0.72,-0.84 5.041,0.026 9.826,0.24 15.12,0.24 2.019,0 4.12,0.179 6,-0.24 0.095,-1.425 0.38,-2.66 1.44,-3.12 -0.189,-0.45 -0.767,-0.513 -1.32,-0.6 -0.89,-1.07 -1.99,-1.93 -2.88,-3 -1.213,-0.307 -2.894,-0.146 -4.2,-0.36 -0.207,-0.862 -1.912,-1.926 -2.4,-0.72 -0.152,0.632 0.811,0.149 0.96,0.48 -0.386,0.44 -1.32,0.239 -2.04,0.239 -0.786,0 -1.605,0 -2.28,0 -0.801,-0.8 -1.841,-0.146 -3,0 -1.773,0.226 -3.928,-0.167 -5.88,0 -0.317,-0.322 -0.486,-0.794 -0.6,-1.319 -0.91,0.05 -0.794,1.125 -1.56,1.319 -1.257,-1.862 -0.193,-5.823 -0.48,-8.16 0.51,0.232 1.503,0.49 1.92,0.12 -0.878,-1.023 -2.485,-1.895 -1.44,-3.84 0.078,-0.557 0.803,0.54 1.08,-0.12 -0.115,-1.005 -1.045,-1.194 -1.44,-1.92 -0.373,-1.174 0.487,-2.159 0.48,-3 -0.004,-0.499 -0.334,-0.78 -0.36,-1.2 1.87,-0.422 3.648,0.267 4.56,1.2 0.384,-0.374 1.007,-0.204 1.44,0 0.314,-0.126 0.392,-0.487 0.36,-0.96 1.88,0 3.76,0 5.64,0 0.235,0.445 0.425,0.935 0.72,1.32 0.6,0 1.2,0 1.8,0 0.038,-0.559 -0.239,-0.801 -0.24,-1.32 1.121,0.184 1.991,-0.247 3,0 0.833,0.204 0.978,1.215 2.28,0.84 0.38,-0.109 0.54,-0.398 0.72,-0.84 1.914,-0.164 4.547,-2.918 4.68,-4.56 0.203,-2.512 -2.076,-2.504 -4.08,-3.12 -2.554,1.214 -6.874,0.448 -8.88,-0.721 -0.603,0.157 -0.654,0.867 -0.96,1.32 -1.607,-0.46 -4.757,0.235 -6.12,-0.84 -0.522,-0.411 -0.675,-1.601 -1.56,-1.44 -0.795,0.144 -0.719,1.22 -0.72,2.04 -0.904,-0.056 -2.132,0.213 -2.28,-0.6 0.225,-0.912 1.263,-0.635 1.32,-1.56 0.049,-0.797 -0.763,-1.154 -1.56,-1.56 0,-1.32 0,-2.64 0,-3.96 1.473,-0.327 3.161,-0.439 4.68,-0.72 -0.317,0.522 -0.512,1.168 -0.84,1.68 0.311,0.609 1.085,0.755 2.04,0.72 0.962,-0.575 0.258,-2.013 -0.12,-2.64 1.103,-0.337 2.482,-0.398 3.96,-0.36 -0.277,0.684 -1.1,0.82 -1.8,1.08 0.268,1.156 -0.85,1.33 -0.72,2.4 0.105,0.868 1.127,1.254 1.68,1.08 1.303,-0.41 0.327,-1.982 -0.36,-2.641 0.803,-0.477 2.219,-0.341 3.48,-0.359 0.48,-1.067 -1.237,-1.425 -1.08,-2.16 1.586,-0.157 3.214,-0.727 4.8,-1.08 1.611,-0.358 3.349,-0.393 4.44,-1.439 -0.525,-0.875 -2.205,-0.596 -3.48,-0.721 -0.091,-2.32 -3.128,-0.409 -4.32,-0.72 -0.299,-0.448 -0.015,-1.165 0,-1.68 -0.446,-0.202 -0.885,0.632 -0.72,1.44 -1.268,-0.188 -2.009,0.151 -2.52,0.72 -1.05,-0.189 -1.242,-1.238 -2.04,-1.68 -0.918,-0.078 -1.385,0.295 -2.16,0.36 0.572,-1.82 -1.792,-3 -2.04,-1.44 -0.086,0.539 0.373,0.619 0.6,1.2 0.333,0.85 0.272,1.656 0.36,2.28 -1.069,0.069 -1.614,-0.387 -2.04,-0.96 0.02,-0.541 0.742,-0.378 0.72,-0.96 -0.324,-0.396 -0.84,-0.6 -1.56,-0.601 -0.322,0.203 0.438,0.735 0,1.08 -0.367,-0.087 -0.353,0.207 -0.72,0.12 -0.516,-0.59 0.32,-1.502 -0.24,-2.28 0.688,-0.352 1.65,-0.43 2.04,-1.08 -0.081,-0.522 -0.556,-0.647 -0.6,-1.202 z m 15.719,2.88 c 0.677,-0.123 1.504,-0.096 1.44,-0.96 -0.738,-0.38 -1.553,0.099 -1.44,0.96 z m 8.52,0.72 c 0.595,0.272 1.672,0.102 2.04,-0.24 -0.122,-1.51 -2.48,-1.15 -2.04,0.24 z m 6.6,1.8 c -0.68,0.035 -2.155,0.633 -2.28,1.2 1.237,0.111 2.484,0.758 3.6,0.6 0.279,-0.293 0.315,-1.014 0.12,-1.44 -0.399,-0.225 -0.93,-0.385 -1.44,-0.36 z m 2.28,2.521 c 0.387,0.886 2.055,1.644 2.28,0.12 -0.281,-0.86 -1.975,-1.206 -2.28,-0.12 z m -5.52,1.439 c 0.496,0.744 2.223,0.843 2.4,-0.239 -0.188,-1.204 -2.701,-1.895 -2.4,0.239 z m -15,0 c 0.95,1.188 2.643,-0.268 3.84,0 -0.254,-1.408 -3.541,-1.245 -3.84,0 z m 10.92,-0.72 c -0.637,-0.054 -1.35,0.506 -1.32,1.08 0.046,0.875 1.796,1.497 2.64,0.72 -0.027,-0.834 -0.597,-1.739 -1.32,-1.8 z m 13.08,1.441 c 0.6,0 1.2,0 1.8,0 -0.088,-0.952 -1.092,-0.988 -2.04,-1.08 -0.063,0.503 0.21,0.67 0.24,1.08 z m -18.24,1.799 c 1.473,-0.213 0.529,-2.96 -1.08,-2.28 -0.67,0.996 0.208,2.406 1.08,2.28 z m 12.48,-0.959 c 0.388,0.607 1.668,0.327 2.28,0.12 0.051,-1.406 -2.666,-2.357 -2.28,-0.12 z m -5.4,0.839 c 0.301,1.008 1.994,1.019 2.16,0.12 0.076,-0.41 -1.229,-1.689 -1.68,-1.681 -0.456,0.606 -0.645,1.006 -0.48,1.561 z m -13.92,0.72 c 0.685,0.297 1.526,0.003 2.04,-0.24 1.037,-2.608 -3.514,-1.986 -2.04,0.24 z m 22.2,-0.48 c 0.044,0.69 1.101,1.108 1.92,1.319 0.026,-0.094 0.1,-0.14 0.24,-0.12 1.343,-1.837 -2.283,-3.111 -2.16,-1.199 z m -13.8,-0.48 c -0.141,1.335 1.14,1.773 2.28,1.44 0.097,-1.276 -1.217,-2.083 -2.28,-1.44 z m -5.28,2.521 c 0.71,0.069 1.145,-0.136 1.56,-0.36 0.377,-2.332 -2.768,-1.262 -1.56,0.36 z m 13.44,-0.96 c 0.279,0.796 2.344,1.114 2.52,0 -0.334,-0.929 -2.292,-1.206 -2.52,0 z m -26.04,1.799 c 1.57,-0.288 0.451,-3.138 -1.2,-2.4 -1.478,0.661 0.324,2.561 1.2,2.4 z m 34.56,-1.44 c 0.372,0.669 1.412,0.668 2.28,0.84 0.069,-0.251 0.297,-0.342 0.24,-0.72 -0.432,-0.681 -2.22,-1.31 -2.52,-0.12 z M 322,612.47 c 0.355,0.716 1.775,0.757 2.4,0.24 -0.054,-1.465 -2.276,-1.983 -2.4,-0.24 z m 13.68,-0.36 c 0.399,0.959 2.436,0.986 2.28,-0.48 -0.599,-0.61 -2.144,-0.401 -2.28,0.48 z m -18.72,0 c -0.45,0.485 -0.35,1.346 -0.12,2.04 0.622,0.3 1.528,-0.042 2.16,-0.12 -0.058,-1.262 -0.757,-1.882 -2.04,-1.92 z m 13.8,0.241 c -0.023,0.583 -0.027,1.147 0.24,1.439 1.087,0.118 2.05,-0.361 1.56,-1.439 -0.357,-0.337 -1.442,-0.337 -1.8,0 z m 13.44,0.359 c 0.232,0.543 1.772,0.873 2.28,0.36 -0.25,-0.731 -1.886,-1.508 -2.28,-0.36 z m -18,0 c -1.693,-0.144 -0.753,3.453 0.96,2.04 -0.063,-0.91 -0.281,-1.982 -0.96,-2.04 z m 12.961,1.44 c 0.578,0.293 1.436,-0.051 2.04,-0.12 0.061,-1.478 -2.722,-1.563 -2.04,0.12 z m 8.159,-0.24 c 0,0.24 0,0.48 0,0.72 0.783,0.138 1.368,0.473 2.04,0.721 1.65,-1.013 -0.839,-2.451 -2.04,-1.441 z m -27.48,0.24 c -0.343,0.627 0.319,1.277 0.36,1.92 0.699,-0.06 1.362,-0.158 1.68,-0.601 0.201,-1.185 -1.336,-2.195 -2.04,-1.319 z m 14.04,0.84 c 0.398,0.321 0.929,0.512 1.68,0.479 0.66,-1.289 -2.39,-2.573 -1.68,-0.479 z m -5.52,-0.48 c -0.323,0.207 -0.329,1.203 -0.12,1.56 0.468,0.252 1.38,0.06 2.04,0.12 -0.06,-1.139 -0.756,-1.643 -1.92,-1.68 z m 13.56,0.96 c 0.062,0.792 1.846,1.53 2.64,0.721 0.301,-1.889 -2.761,-2.259 -2.64,-0.721 z m -5.4,0 c -0.079,1.467 1.433,2.188 2.52,1.44 0.068,-1.348 -1.41,-2.017 -2.52,-1.44 z m 8.28,1.44 c 0.247,0.873 1.696,0.545 2.76,0.6 0.224,-1.377 -2.501,-1.858 -2.76,-0.6 z m -3.96,0.6 c -0.246,-1.354 -2.12,0.023 -0.96,0.721 0.644,0.083 0.759,-0.362 0.96,-0.721 z m 7.321,0.36 c -0.36,0.486 -0.1,1.148 0.24,1.561 0.787,0.026 1.403,-0.117 2.04,-0.24 0.233,-1.42 -1.211,-1.579 -2.28,-1.321 z m -6.241,0.24 c 0.288,-0.288 -0.393,-0.31 -0.36,-0.12 -10e-4,-0.009 0.406,0.074 0.36,0.12 z m 0.721,1.68 c 0.499,0.401 1.793,0.52 2.4,0.12 -0.08,-1.001 -2.7,-2.217 -2.4,-0.12 z m -5.761,0.36 c -0.131,1.028 1.649,1.213 2.64,0.72 -0.06,-1.327 -2.48,-1.969 -2.64,-0.72 z m 8.4,0.48 c 0.163,1.2 2.174,1.56 3,0.721 -0.302,-0.877 -2.043,-1.258 -3,-0.721 z m -5.159,1.44 c 0.233,0.537 1.533,0.841 2.04,0.36 0.102,-1.541 -1.844,-1.846 -2.04,-0.36 z m 8.399,0.361 c -0.134,0.994 2.019,1.132 2.88,0.72 -0.08,-1.264 -2.725,-1.868 -2.88,-0.72 z m -13.8,0.599 c 0.385,0.616 1.551,0.884 2.28,0.479 0.08,-1.354 -2.248,-2.265 -2.28,-0.479 z m 8.52,0.6 c 0.323,0.578 1.562,0.81 2.28,0.601 0.332,-1.478 -2.036,-1.741 -2.28,-0.601 z m -5.04,0.12 c -0.837,1.039 1.294,2.135 2.04,1.2 -0.164,-0.916 -1.105,-1.054 -2.04,-1.2 z m -19.56,0.601 c -0.267,0.292 -0.263,0.856 -0.24,1.439 0.952,1.151 3.221,0.353 3.6,2.16 0.622,-0.058 1.489,0.129 1.92,-0.12 -0.972,-1.947 -3.128,-2.712 -5.28,-3.479 z m 29.28,2.16 c 0.448,-0.041 1.203,-0.698 1.08,-1.32 -0.117,-0.593 -1.253,-1.066 -2.16,-0.721 -1.644,0.628 0.166,2.124 1.08,2.041 z m -15.36,-0.601 c 0.544,0.216 1.435,0.085 2.16,0.12 0.231,-1.589 -2.845,-2.025 -2.16,-0.12 z M 313,626.511 c 0.122,0.576 1.601,1.082 2.28,0.6 0.19,-1.521 -2.632,-2.269 -2.28,-0.6 z m 13.8,-0.481 c 0.312,0.802 1.477,1.14 2.52,0.84 -0.087,-1.01 -1.849,-1.878 -2.52,-0.84 z m 13.92,0.241 c 0.303,0.297 0.644,0.556 1.2,0.6 0.078,-0.445 0.365,-0.754 0.12,-1.2 -0.54,-0.241 -1.322,-0.062 -1.32,0.6 z m -2.76,0.96 c 0.004,-0.056 -1.114,-1.173 -1.44,-1.2 -0.691,-0.059 -1.168,0.221 -1.08,1.32 0.617,0.429 2.442,0.802 2.52,-0.12 z m 7.08,0.239 c -0.038,-0.727 -1.927,-0.344 -0.84,0.601 0.409,-0.105 0.855,-0.32 0.84,-0.601 z m -28.919,0.6 c 0,0.768 1.377,1.528 2.28,0.96 0.13,-1.527 -2.282,-2.507 -2.28,-0.96 z m 13.799,-0.24 c 0.23,0.251 0.427,0.533 0.84,0.601 0.278,-0.243 0.642,-0.4 0.72,-0.841 -0.332,-0.464 -1.507,-0.523 -1.56,0.24 z m 15.84,0.36 c 0.415,0.094 0.528,-0.112 0.6,-0.36 -0.178,-0.062 -0.302,-0.178 -0.48,-0.24 -0.176,0.283 -0.253,0.224 -0.12,0.6 z m -7.32,0.12 c 0.129,1.017 1.578,1.492 2.52,0.96 -0.077,-0.942 -1.828,-1.791 -2.52,-0.96 z m -13.8,0.48 c 0.002,0.73 1.648,1.197 2.4,0.721 0.22,-1.615 -2.403,-1.925 -2.4,-0.721 z m 8.76,0.24 c -0.199,1.1 1.099,1.64 1.8,1.08 0.063,-0.992 -1.248,-1.81 -1.8,-1.08 z m -14.279,0.241 c 0.037,0.562 0.326,0.874 0.72,1.08 2.156,-0.645 2.783,2.339 4.56,1.68 -0.293,-1.643 -3.92,-3.643 -5.28,-2.76 z m 22.319,1.08 c 0.479,0.274 1.211,0.403 1.8,0.239 -0.289,-0.511 -0.549,-1.051 -1.32,-1.079 -0.287,0.152 -0.488,0.39 -0.48,0.84 z m -13.68,0 c -0.048,0.726 1.984,1.49 2.04,0 -0.4,-0.674 -1.976,-0.95 -2.04,0 z m 8.16,0.959 c 0.408,0.192 1.512,0.192 1.92,0 -0.211,-1.361 -1.618,-1.119 -1.92,0 z m -21.24,0.121 c -0.01,-0.67 -0.382,-0.979 -0.96,-1.08 0.073,0.606 0.218,1.141 0.96,1.08 z m 1.2,-0.601 c 0.082,-0.322 -0.248,-0.232 -0.36,-0.36 -0.021,0.262 0.099,0.383 0.36,0.36 z m 28.56,0.96 c 0.332,0.469 1.452,0.813 1.8,0.24 -0.095,-0.769 -1.621,-1.237 -1.8,-0.24 z m -27,-0.48 c -1.832,0.029 -0.092,2.703 1.56,1.68 -0.157,-0.43 -0.976,-1.689 -1.56,-1.68 z m 13.2,0.72 c 0.384,0.476 1.002,0.338 1.44,0 -0.064,-0.861 -1.404,-0.944 -1.44,0 z m 8.16,0.72 c 0.15,0.761 1.811,0.771 2.4,0.36 -0.218,-1.062 -1.917,-1.447 -2.4,-0.36 z m -12.96,-0.6 c -1.267,0.853 -2.079,2.161 -3,3.36 1.672,1.339 2.371,-0.446 3.12,-1.44 0.384,-0.51 0.683,-0.881 0.96,-1.2 -0.302,-0.297 -0.578,-0.621 -1.08,-0.72 z m -6.12,1.92 c 0.429,0.347 1.885,0.398 2.16,-0.12 -0.435,-0.558 -2.228,-1.511 -2.16,0.12 z m 14.16,-0.36 c 0.017,-0.142 0.214,-0.271 0,-0.359 -0.017,0.141 -0.213,0.271 0,0.359 z m 8.04,0.721 c 0.563,-0.038 1.207,0.007 1.44,-0.36 -0.286,-0.787 -1.437,-0.647 -1.44,0.36 z m -13.68,0.239 c 0.427,0.363 1.741,0.348 1.68,-0.479 -0.49,-0.71 -1.797,-0.807 -1.68,0.479 z m -13.68,0 c 0.542,0.139 0.895,0.465 1.68,0.36 0.574,-0.841 -1.798,-1.757 -1.68,-0.36 z m 22.08,0.841 c 0.211,0.783 1.999,0.857 2.16,-0.24 -0.401,-1.179 -2.49,-0.988 -2.16,0.24 z m 8.16,0.119 c 0.216,0.859 1.625,1.413 2.4,0.96 0.219,-1.331 -1.533,-1.445 -2.4,-0.96 z m -13.199,0.12 c -0.032,0.495 0.753,0.599 1.08,0.36 0.031,-0.495 -0.754,-0.598 -1.08,-0.36 z m -14.401,0.72 c 0.431,0.25 1.298,0.062 1.92,0.12 0.211,-1.169 -1.845,-0.764 -1.92,-0.12 z m 22.68,0.72 c 0.312,-0.028 0.979,-0.776 0.36,-0.96 -0.106,0.261 -0.723,0.627 -0.36,0.96 z m -14.16,-0.24 c 0.188,0.674 1.946,0.653 2.28,0.12 0.044,-0.807 -2.287,-1.182 -2.28,-0.12 z m -13.92,0.24 c 0.08,0 0.16,0 0.24,0 0,-0.08 0,-0.16 0,-0.24 -0.08,0 -0.16,0 -0.24,0 0,0.08 0,0.16 0,0.24 z m 22.801,0.6 c 0.74,0.119 0.708,-0.802 0,-0.72 -0.276,0.264 -0.195,0.399 0,0.72 z m -14.281,0.36 c 0.589,0.069 0.884,-0.155 0.96,-0.601 -0.433,-0.403 -1.272,-0.026 -0.96,0.601 z m 8.52,0.84 c 0.554,-0.007 1.173,0.054 1.56,-0.12 0.096,-1.418 -2.12,-1.264 -1.56,0.12 z m 13.56,-0.599 c 0.425,0.612 1.833,0.832 2.28,0.12 -0.021,-0.986 -2.09,-0.947 -2.28,-0.12 z m -27.6,0.12 c 0.239,0.12 0.189,0.53 0.6,0.479 0.287,-0.152 0.489,-0.392 0.48,-0.84 -0.431,0.049 -0.929,0.031 -1.08,0.361 z m 22.321,0.479 c 0.029,0.741 1.32,1.055 1.8,0.6 -0.254,-0.747 -1.276,-1.442 -1.8,-0.6 z m -20.641,-0.12 c 0.08,0 0.16,0 0.24,0 0,-0.08 0,-0.16 0,-0.24 -0.08,0 -0.16,0 -0.24,0 0,0.08 0,0.16 0,0.24 z m 6.72,1.08 c 0.419,0.756 1.689,0.636 2.16,0 -0.155,-1.606 -1.953,-1.478 -2.16,0 z m 22.2,-0.12 c 0.242,0.518 1.026,0.494 1.68,0.601 0.069,-0.251 0.297,-0.343 0.24,-0.721 -0.234,-0.719 -1.782,-0.594 -1.92,0.12 z m -13.68,0.12 c 0.145,0.795 1.645,1.166 2.04,0.36 -0.346,-0.405 -1.692,-1.435 -2.04,-0.36 z m -12,0.72 c 0.221,-1.237 -2.575,-1.477 -1.92,0.721 0.903,-0.149 1.795,-0.018 1.92,-0.721 z m 20.401,0.48 c 0.476,0.154 1.907,0.337 2.04,-0.24 -0.389,-0.517 -1.923,-0.528 -2.04,0.24 z m 8.279,-0.12 c -0.028,0.468 0.258,0.622 0.36,0.96 0.646,-0.154 1.51,-0.09 1.8,-0.6 -0.406,-0.523 -1.548,-1.082 -2.16,-0.36 z m -13.92,0.481 c 0.083,0.827 1.411,1.171 2.04,0.72 -0.015,-1.107 -1.289,-1.291 -2.04,-0.72 z m 12.48,0.479 c 0.74,0.118 0.708,-0.802 0,-0.72 -0.164,0.154 -0.164,0.567 0,0.72 z m -4.08,0.84 c 0.636,0.264 1.764,0.55 2.4,0.12 -0.009,-0.209 0.027,-0.373 0.12,-0.48 -0.403,-0.848 -2.634,-1.154 -2.52,0.36 z m -5.16,0.84 c 0.64,0 1.28,0 1.92,0 0.111,-1.102 -2.142,-1.451 -1.92,0 z m 8.401,-0.12 c -0.075,0.465 -0.1,0.494 0.12,0.841 0.484,-0.156 0.8,-0.48 0.84,-1.08 -0.433,-0.033 -0.579,0.221 -0.96,0.239 z m -5.401,1.56 c 0.229,0.379 1.066,0.714 1.44,0.24 0.241,-1.14 -1.45,-1.251 -1.44,-0.24 z m -25.08,6.241 c 0.018,-0.143 0.214,-0.272 0,-0.36 -0.017,0.141 -0.213,0.272 0,0.36 z"
         id="path9278" /><path
         style="clip-rule:evenodd;fill:#9d2632;fill-rule:evenodd"
         d="m 272.56,599.15 c 1.068,-0.927 2.857,-0.977 4.2,-0.24 0.599,-0.438 1.502,-0.388 2.16,0 1.072,-0.755 2.483,-0.297 3.6,-0.6 -0.683,2.034 2.366,2.499 4.2,1.68 0.617,-0.275 0.905,-0.938 1.44,-0.84 -0.151,0.809 -0.762,1.158 -0.96,1.92 0.739,0.718 2.168,0.451 2.76,-0.24 -0.299,-0.744 -1.432,-1.148 -0.96,-2.28 1.351,-0.393 1.932,0.92 2.64,1.56 0.716,-0.724 2.359,-0.521 3.6,-0.721 0.578,-0.102 0.353,-1.007 1.2,-0.84 0.326,0.368 0.144,0.632 -0.12,0.96 0.522,0.358 -0.113,1.873 0.6,2.04 1.085,-0.074 1.416,-0.904 1.92,-1.56 -0.216,-0.704 -1.247,-0.593 -1.32,-1.44 0.584,0.175 0.754,0.457 1.32,0.12 0.556,0.404 0.992,0.929 1.44,1.44 1.288,0.352 2.399,0.881 3,1.92 -0.898,0.416 -1.824,-0.175 -2.4,-0.481 -0.898,-0.022 -1.081,0.322 -1.92,0.12 -0.547,0.374 -0.632,1.208 -0.96,1.8 -0.954,0.113 -0.982,-0.698 -2.04,-0.479 -0.282,0.398 0.082,0.982 0.12,1.44 -0.1,0.54 -0.641,0.639 -0.48,1.439 1.286,0.212 1.442,-1.377 2.52,-1.8 0.462,-0.182 1.007,0.009 1.56,-0.12 1.25,-0.292 2.393,-1.655 3.84,-0.48 0.47,-0.369 0.083,-1.597 0.6,-1.92 0.483,-0.082 0.685,0.115 1.08,0.12 -0.305,0.565 -0.604,0.894 -0.24,1.561 -1.1,1.141 -0.2,4.28 -1.2,5.519 -1.017,0.55 -2.024,-0.377 -3.24,-0.359 -0.369,0.654 0.655,0.831 0.72,1.44 -0.872,1.089 -1.835,-0.644 -3.6,-0.12 0,0.681 0,1.36 0,2.04 2.598,0.551 3.66,-2.093 5.88,-1.92 -0.694,2.025 -3.071,2.369 -4.08,4.08 -0.709,0.393 -1.816,-0.164 -2.28,0 -1.085,0.81 0.41,1.422 1.68,1.32 1.239,-0.1 2.447,-1.3 3.12,-1.2 -0.23,1.471 1.098,2.02 1.2,2.76 -1.279,-0.24 -2.346,-0.693 -3.48,-1.08 -0.476,0.164 -0.575,0.705 -0.84,1.08 -0.72,0 -1.44,0 -2.16,0 -0.074,-0.514 0.391,-0.489 0.36,-0.96 -0.706,-0.825 -2.238,-0.005 -3.36,-0.12 -0.268,0.052 -0.048,0.592 -0.12,0.84 -1.01,-0.109 -2.489,0.25 -3.12,-0.239 -0.13,-1.515 1.315,-1.55 2.64,-2.04 0.86,-0.318 1.586,-0.938 2.16,-1.2 0.525,-0.241 1.267,-0.139 1.56,-0.601 -0.329,-0.751 -1.336,-0.823 -2.4,-0.84 -0.445,0.651 -0.35,1.538 -1.2,1.681 -0.719,0.12 -1.293,-0.482 -1.8,-0.96 0.122,-0.758 0.631,-1.129 1.2,-1.44 0.371,0.029 0.679,0.122 0.96,0.24 1.072,-0.227 1.472,-1.525 3,-2.28 1.324,-0.653 3.661,-0.856 3.84,-2.04 0.177,-1.169 -1.278,-1.569 -2.28,-0.84 -0.007,0.647 0.658,0.623 0.48,1.44 -0.661,1.524 -1.512,-0.245 -2.64,-0.36 -0.876,-0.09 -1.143,0.778 -2.04,0.24 -0.08,-0.92 0.869,-0.811 1.08,-1.44 -0.462,-0.818 -1.106,-1.454 -2.16,-1.68 -0.374,0.459 0.205,0.99 0.24,1.44 -0.018,0.463 -0.668,0.292 -0.84,0.601 -0.009,0.609 0.53,0.67 0.72,1.08 -1.051,0.828 -1.004,2.755 -2.04,3.6 -1.36,-0.558 -2.534,-0.025 -2.64,1.32 0.733,0.446 0.929,-0.559 1.8,-0.36 0.953,0.828 0.006,3.253 -1.2,3.48 -0.656,0.123 -0.93,-0.299 -1.68,-0.36 -0.607,0.15 -0.319,1.184 0,1.44 -1.198,-0.109 -3.051,0.383 -4.56,0.119 -0.743,-0.129 -1.223,-0.845 -1.8,-0.479 -0.807,0.599 0.507,2.898 -0.48,3.72 -0.437,0.35 -0.742,-0.234 -1.2,-0.24 -0.426,0.214 -0.935,0.346 -1.08,0.841 0.385,0.495 0.764,-0.211 1.32,-0.24 0.833,0.206 1.079,1.001 1.44,1.68 -0.327,0.819 -0.355,1.424 0,2.28 -1.323,-0.301 -2.93,-2.023 -3.6,0 0.292,0.788 1.205,0.955 1.68,1.56 0.215,1.065 0.639,1.921 1.56,2.28 0.204,0.914 0.154,2.315 0,3.24 -0.172,0.428 -0.723,0.477 -0.96,0.84 0.256,0.544 0.857,0.743 1.08,1.32 -0.25,0.95 -1.308,1.092 -1.44,2.16 -0.001,0.602 0.936,0.264 1.2,0.6 -0.626,0.742 -0.113,1.78 0.24,2.52 -0.993,0.392 -1.332,-0.906 -2.4,-0.84 -0.158,0.043 -0.189,0.212 -0.36,0.24 0.075,1.445 1.252,1.788 2.52,2.04 -0.194,1.091 -0.356,2.479 -1.2,2.519 -1.1,0.053 -1.243,-2.703 -2.88,-2.399 -1.024,0.643 0.328,1.225 0.84,1.44 -0.202,1.922 1.458,1.983 2.4,2.761 0.168,0.896 0.702,2.29 0.48,3.96 -0.51,0.17 -0.967,0.393 -1.32,0.72 0.415,0.831 1.405,1.935 2.64,1.2 0.054,-0.614 -0.463,-0.657 -0.48,-1.2 1.523,-0.044 2.934,0.026 3.84,0.6 0.114,0.767 0.418,1.343 0.84,1.801 0.429,-0.275 0.713,-0.241 0.84,-0.48 0.222,-0.42 -0.633,-0.69 -0.24,-1.32 1.024,-0.604 2.46,0.082 3.36,0.36 0.906,-0.294 1.538,-0.862 2.88,-0.72 0.555,0.725 0.957,1.604 1.32,2.52 -0.018,0.502 -0.538,0.502 -0.84,0.72 0.151,0.569 0.703,0.737 0.96,1.2 -0.574,0.337 -1.15,-0.964 -1.8,-0.239 0.031,0.888 0.74,1.1 1.56,1.199 0.73,-0.63 0.889,-1.831 1.92,-2.16 0.625,0.136 0.521,1 0.84,1.44 0.604,-0.356 1.128,-0.792 1.44,-1.44 -0.099,-0.54 -0.964,-0.315 -1.56,-0.359 -0.614,-0.123 0.469,-0.333 0.24,-0.84 -0.026,-0.654 -0.902,-0.458 -0.96,-1.08 0.782,-0.498 1.621,-0.94 2.76,-1.08 0.04,1.28 0.497,2.143 1.32,2.64 0.525,-0.194 1.065,-0.375 1.32,-0.84 -0.005,-0.56 -0.463,-1.155 -0.12,-1.68 1.008,-0.074 1.609,1.261 2.16,2.04 -0.263,0.978 -1.745,0.735 -2.4,1.319 -0.111,0.671 0.492,0.628 0.36,1.32 -0.984,0.462 -2.151,0.955 -3.24,0.36 -0.078,0.763 0.739,1.152 1.2,1.199 1.236,0.128 3.365,-1.201 3.96,-1.8 0.103,-0.583 -0.344,-0.616 -0.24,-1.2 0.254,-0.346 1.184,-0.519 1.68,-0.239 0.344,0.928 -0.191,1.951 -0.36,2.76 -0.175,0.226 -0.786,0.015 -0.96,0.24 -0.202,1.242 0.431,1.648 1.44,1.68 -0.111,2.049 0.293,4.613 -0.36,6.12 -0.098,0.657 0.535,0.585 0.48,1.2 -0.764,1.167 -1.404,2.804 -3,3.12 -0.951,0.188 -2.011,-0.255 -3.12,-0.24 -0.437,0.006 -0.881,0.196 -1.32,0.24 -3.667,0.362 -8.85,0.082 -13.32,-0.12 -2.893,-0.132 -5.703,0.023 -7.8,-0.36 -0.973,0.26 -2.552,0.351 -4.2,0.24 -6.536,-0.439 -9.586,-4.505 -9.24,-12.12 0.491,-10.819 0.36,-24.778 0.36,-36.72 0,-2.356 -0.263,-4.731 0,-6.601 0.057,-0.407 0.339,-0.82 0.36,-1.2 0.039,-0.696 -0.323,-1.419 -0.36,-2.04 -0.159,-2.671 1.413,-6.692 2.88,-8.159 0.656,-0.656 1.85,-1.297 2.76,-1.44 0.997,-0.157 2.081,0.248 2.76,-0.6 0.741,-0.025 0.834,0.602 1.32,0.836 z m 7.68,1.68 c 0.287,0.433 0.686,0.754 1.32,0.84 0.189,-0.892 -1.017,-1.899 -1.32,-0.84 z m 13.2,0.12 c 0.114,0.727 0.386,1.293 0.72,1.8 0.868,-0.132 1.377,-0.622 1.44,-1.56 -0.227,-0.72 -1.676,-0.768 -2.16,-0.24 z m -9,1.2 c 0.111,0.832 1.68,1.355 2.28,0.359 -0.1,-1.687 -2.487,-1.913 -2.28,-0.359 z m 6.72,0.121 c -0.737,0.094 -0.745,1.31 -0.24,1.68 0.659,0.02 0.99,-0.29 1.44,-0.48 -0.251,-0.55 -0.65,-0.95 -1.2,-1.2 z m -9.36,0.359 c -0.037,0.597 0.019,1.102 0.12,1.56 0.523,0.261 1.529,0.617 1.92,0 -0.36,-0.826 -1.078,-1.709 -2.04,-1.56 z m 4.68,1.68 c -0.218,1.764 1.622,0.999 2.76,0.96 0.067,-1.366 -1.859,-1.618 -2.76,-0.96 z m -2.16,0.121 c -1.049,0.871 -0.911,2.929 -2.64,3.119 0,-0.239 0,-0.479 0,-0.72 -0.562,0.157 -1.164,0.276 -1.32,0.84 0.339,0.661 0.976,1.024 2.04,0.96 0.681,-0.523 1.133,-1.315 2.16,-1.56 0.528,-0.126 1.199,0.238 1.68,-0.24 -0.285,-1.154 -1.036,-1.844 -1.92,-2.399 z m 17.64,0.599 c -0.084,0.787 1.953,0.959 1.68,-0.12 -0.562,-0.254 -1.251,-0.27 -1.68,0.12 z m -22.439,0.72 c 0.377,0.196 1.519,0.284 1.44,-0.359 -0.258,-0.731 -1.477,-0.498 -1.44,0.359 z m 21.359,0.36 c 0.022,0.457 0.17,0.789 0.6,0.84 0.206,-0.154 0.472,-0.248 0.48,-0.6 -0.126,-0.371 -0.899,-0.966 -1.08,-0.24 z m -11.64,1.68 c 0.605,0.494 2.003,0.42 2.76,0.12 0.179,-1.495 -3.092,-2.227 -2.76,-0.12 z m -13.32,-0.96 c 0.08,0 0.16,0 0.24,0 0,-0.08 0,-0.16 0,-0.24 -0.08,0 -0.16,0 -0.24,0 0,0.08 0,0.16 0,0.24 z m 10.56,1.68 c 0.227,0.654 0.961,0.799 1.8,0.841 0.809,-1.258 -1.515,-2.072 -1.8,-0.841 z m -3.48,2.64 c 0.518,-0.042 0.798,-0.322 0.84,-0.84 -0.575,-1.113 -1.76,0.115 -0.84,0.84 z m 1.56,-0.24 c 0.283,-0.117 0.761,-0.039 0.72,-0.479 -0.029,-0.172 -0.198,-0.203 -0.24,-0.36 -0.436,0.003 -0.527,0.352 -0.48,0.839 z m -4.8,1.08 c 0,0.16 0,0.32 0,0.479 0.431,0.25 1.298,0.062 1.92,0.12 0.069,-0.854 -1.28,-0.844 -1.92,-0.599 z m 5.761,1.32 c 0.54,0.458 2.137,0.332 2.28,-0.36 -0.339,-0.756 -2.452,-0.985 -2.28,0.36 z m -6.601,0.84 c 0.017,-0.142 0.213,-0.272 0,-0.36 -0.017,0.142 -0.214,0.272 0,0.36 z m -5.04,1.081 c 0.74,0.118 0.707,-0.802 0,-0.721 -0.276,0.264 -0.195,0.399 0,0.721 z m 8.4,-0.241 c 0.62,-0.141 1.813,0.293 2.04,-0.24 -0.375,-0.537 -1.825,-0.173 -2.04,0.24 z m -2.64,1.56 c 0.134,-0.185 0.39,-0.25 0.36,-0.6 -0.16,0 -0.32,0 -0.48,0 0.066,0.175 -0.14,0.62 0.12,0.6 z m -3.48,1.08 c 0.08,0 0.16,0 0.24,0 0,-0.08 0,-0.16 0,-0.239 -0.08,0 -0.16,0 -0.24,0 0,0.079 0,0.159 0,0.239 z m 1.44,0.721 c 0.446,-0.035 0.825,-0.136 0.96,-0.48 -0.342,-0.333 -1.026,-0.223 -0.96,0.48 z m -9.36,1.799 c 0.122,1.278 1.763,1.037 2.52,1.68 -0.36,0.359 -1.214,0.227 -1.32,0.84 0.23,0.948 2.106,1.195 3,0.721 -0.143,-2.243 -1.767,-4.064 -4.2,-3.241 z m 8.52,2.16 c 0.256,0.258 0.654,0.044 0.72,-0.24 -0.256,-0.258 -0.653,-0.045 -0.72,0.24 z m 1.56,6.6 c 0.08,0 0.16,0 0.24,0 0.134,-0.173 0.13,-0.293 -0.12,-0.36 -0.006,0.154 -0.153,0.167 -0.12,0.36 z m -8.76,1.321 c 0.08,0 0.16,0 0.24,0 0,-0.08 0,-0.16 0,-0.24 -0.08,0 -0.16,0 -0.24,0 0,0.079 0,0.159 0,0.24 z m 7.32,1.919 c 0.16,0 0.32,0 0.48,0 0.04,-0.44 -0.185,-0.616 -0.48,-0.72 0,0.24 0,0.48 0,0.72 z m -1.8,1.8 c 0.128,0.404 0.726,0.482 0.84,0 -0.141,-0.195 -0.759,-0.436 -0.84,0 z m 2.4,3.12 c -0.066,-0.175 0.14,-0.62 -0.12,-0.601 -0.163,0.154 -0.185,0.589 0.12,0.601 z m -3.48,7.201 c -0.131,0.831 1.691,1.822 2.28,0.6 -0.165,-0.98 -2.102,-1.73 -2.28,-0.6 z m 2.4,2.759 c 0.646,0.362 1.422,1.435 2.4,0.72 -0.168,-1.032 -1.344,-1.056 -2.04,-1.56 -0.099,0.3 -0.328,0.471 -0.36,0.84 z m -3.36,1.201 c 0.468,0.572 0.873,1.207 1.56,1.56 0.491,-0.109 0.832,-0.367 0.96,-0.84 -0.448,-0.919 -1.923,-2.288 -2.52,-0.72 z m -1.44,2.519 c 0.326,0.435 1.211,0.236 1.2,-0.359 -0.334,-0.542 -1.213,-0.399 -1.2,0.359 z m 12.6,-0.359 c 0.08,0 0.16,0 0.24,0 0,-0.08 0,-0.16 0,-0.24 -0.08,0 -0.16,0 -0.24,0 0,0.08 0,0.159 0,0.24 z m -8.64,0 c 0.343,0.816 0.989,1.331 1.92,1.56 0.121,-0.239 0.53,-0.189 0.48,-0.6 -0.319,-0.738 -1.551,-1.148 -2.4,-0.96 z m 13.92,0.599 c 0.009,0.951 0.84,1.08 1.56,1.32 0.232,-0.288 0.673,-0.367 0.72,-0.84 -0.569,-0.387 -1.522,-0.988 -2.28,-0.48 z m -8.52,0.84 c 0.488,0.652 1.594,1.268 2.4,0.601 -0.332,-0.851 -2.088,-2.52 -2.4,-0.601 z m 4.92,0.36 c 0,0.12 0,0.24 0,0.359 0.391,0.65 1.757,1.191 2.52,0.721 -0.215,-0.918 -1.632,-1.228 -2.52,-1.08 z m -12.48,0.96 c 0.308,0.508 1.62,0.266 1.44,-0.48 -0.494,-0.279 -1.314,0.006 -1.44,0.48 z m 4.68,-0.24 c -0.006,1.189 1.091,1.922 2.16,1.32 -0.107,-0.987 -1.31,-1.469 -2.16,-1.32 z m -7.08,0.96 c 0.08,0 0.16,0 0.24,0 0,-0.08 0,-0.16 0,-0.24 -0.08,0 -0.16,0 -0.24,0 0,0.08 0,0.16 0,0.24 z m 14.521,1.2 c 0.082,-1.202 -1.193,-1.047 -2.16,-1.2 0.082,0.973 1.178,1.521 2.16,1.2 z m -10.081,-0.24 c -0.015,-0.306 -0.175,-0.465 -0.48,-0.48 0.015,0.305 0.175,0.465 0.48,0.48 z m 19.68,-0.24 c -0.433,0.512 -0.839,0.853 -0.72,1.561 0.27,1.596 3.053,1.036 2.28,-0.96 -0.37,0.351 -0.537,0.902 -1.2,0.96 -0.273,-0.088 -0.359,-0.361 -0.48,-0.601 -0.104,-0.382 0.77,-0.801 0.12,-0.96 z m -4.44,1.44 c -0.027,-0.933 -0.865,-1.055 -1.68,-1.2 0.016,0.917 0.823,1.505 1.68,1.2 z m -10.08,-0.24 c 0.08,0 0.16,0 0.24,0 0,-0.08 0,-0.16 0,-0.24 -0.08,0 -0.16,0 -0.24,0 0,0.08 0,0.16 0,0.24 z m 17.28,1.441 c 0.645,-0.154 1.588,-0.013 2.16,-0.24 -0.747,-0.473 -1.896,-0.911 -2.16,0.24 z m -11.76,-0.481 c 0.08,0 0.16,0 0.24,0 0,-0.08 0,-0.16 0,-0.239 -0.08,0 -0.16,0 -0.24,0 0,0.079 0,0.159 0,0.239 z m 5.16,0.721 c 0.093,0.524 1.212,0.445 1.32,0 -0.44,-0.084 -0.912,-0.208 -1.32,0 z m 9.36,0.479 c 0.32,0.232 1.165,0.188 0.96,-0.479 -0.516,-0.037 -0.968,-0.009 -0.96,0.479 z m -5.64,6.12 c 0.355,-0.085 0.847,-0.033 0.96,-0.36 -0.278,-0.396 -0.918,-0.148 -0.96,0.36 z m 4.2,2.521 c 0.994,-0.087 1.872,-0.289 2.04,-1.2 -0.646,-0.045 -2.071,0.167 -2.04,1.2 z"
         id="path9280" /></g></g></svg>