<?xml version="1.0" encoding="UTF-8" standalone="no"?>
<!-- Generator: Adobe Illustrator 21.0.2, SVG Export Plug-In . SVG Version: 6.00 Build 0)  -->

<svg
   xmlns:dc="http://purl.org/dc/elements/1.1/"
   xmlns:cc="http://creativecommons.org/ns#"
   xmlns:rdf="http://www.w3.org/1999/02/22-rdf-syntax-ns#"
   xmlns:svg="http://www.w3.org/2000/svg"
   xmlns="http://www.w3.org/2000/svg"
   xmlns:sodipodi="http://sodipodi.sourceforge.net/DTD/sodipodi-0.dtd"
   xmlns:inkscape="http://www.inkscape.org/namespaces/inkscape"
   version="1.1"
   id="Layer_1"
   x="0px"
   y="0px"
   viewBox="0 0 575.61221 604.54241"
   xml:space="preserve"
   inkscape:version="0.91 r13725"
   sodipodi:docname="171119_Phasenpruefer_Solid_White_Square.svg"
   width="575.61224"
   height="604.54242"><metadata
     id="metadata4242"><rdf:RDF><cc:Work
         rdf:about=""><dc:format>image/svg+xml</dc:format><dc:type
           rdf:resource="http://purl.org/dc/dcmitype/StillImage" /><dc:title></dc:title></cc:Work></rdf:RDF></metadata><defs
     id="defs4240" /><sodipodi:namedview
     pagecolor="#ffffff"
     bordercolor="#666666"
     borderopacity="1"
     objecttolerance="10"
     gridtolerance="10"
     guidetolerance="10"
     inkscape:pageopacity="0"
     inkscape:pageshadow="2"
     inkscape:window-width="1440"
     inkscape:window-height="876"
     id="namedview4238"
     showgrid="false"
     fit-margin-top="0"
     fit-margin-left="0"
     fit-margin-right="0"
     fit-margin-bottom="0"
     inkscape:zoom="0.83977715"
     inkscape:cx="194.06006"
     inkscape:cy="188.46985"
     inkscape:window-x="0"
     inkscape:window-y="24"
     inkscape:window-maximized="1"
     inkscape:current-layer="layer1" /><g
     inkscape:groupmode="layer"
     id="layer1"
     inkscape:label="Layer 1"
     style="display:inline"
     transform="translate(-33.027987,40.348265)"
     sodipodi:insensitive="true"><path
       inkscape:connector-curvature="0"
       id="path4220"
       d="m 373.82505,-35.085866 c -0.0698,0.0095 0.99692,-0.386924 2.11434,-0.211435 3.40409,0.533872 6.44768,4.435886 8.0345,7.399135 1.37749,2.574209 2.60275,6.183388 3.59332,9.724908 1.03392,3.696924 2.0192,7.881203 2.11434,11.2049463 0.10466,3.6979815 -0.17126,7.15281293 1.05612,9.9352853 1.21257,2.7475849 3.57746,4.3587121 5.28584,6.7648319 2.28032,3.2137975 4.55006,7.6919695 4.43906,13.1067955 -0.0888,4.342855 -2.30886,9.472244 -6.13053,9.513474 -6.01318,0.06449 -5.52266,-7.986921 -6.76483,-13.529664 -0.56241,-2.508664 -1.99277,-5.456054 -3.17151,-8.456304 -1.0614,-2.7021264 -2.17988,-5.44654 -3.59333,-7.822002 -3.1345,-5.2689352 -4.35765,-11.3878365 -6.55339,-16.278306 -1.52127,-3.38823 -3.19265,-6.204531 -4.22868,-10.992454 -0.55607,-2.575268 -1.17874,-5.74995 -0.42181,-7.822003 0.65121,-1.787675 2.59006,-2.319432 4.22656,-2.537208 z"
       style="clip-rule:evenodd;fill:#ffffff;fill-opacity:1;fill-rule:evenodd;stroke:#ffffff;stroke-width:10;stroke-miterlimit:4;stroke-dasharray:none;stroke-opacity:1" /><path
       inkscape:connector-curvature="0"
       id="path4222"
       d="m 283.76579,-32.760092 c 0.86264,-0.09092 1.70204,-0.327723 3.38294,0.634302 1.29927,0.743191 2.40295,1.75596 2.11434,1.478981 5.09134,4.891527 7.637,12.459808 11.62676,18.815515 3.25291,5.1811905 5.7806,8.2385266 10.14778,12.8964179 3.06896,3.2719417 6.64748,6.8948642 9.93633,10.3581541 3.72653,3.925272 9.03881,9.047262 11.41639,14.376456 2.05514,4.607147 2.18411,13.805585 -4.01725,13.952532 -3.38295,0.08034 -7.10946,-3.945359 -9.0906,-6.341964 -0.94088,-1.138572 -2.05409,-2.2116 -2.74864,-3.382944 -1.28024,-2.160856 -2.10589,-4.796381 -3.38295,-7.1877 -1.17981,-2.212657 -2.58056,-4.354484 -3.80581,-6.553398 -2.32261,-4.17265 -5.05751,-8.5895077 -9.09061,-11.8392489 -4.1494,-3.3427711 -7.93406,-4.68854866 -11.83925,-8.2448695 -3.07531,-2.7993866 -7.05449,-7.5651096 -8.87917,-11.4163806 -1.84159,-3.8851 -4.01619,-10.640418 -1.05717,-14.798267 1.09417,-1.535012 3.24023,-2.535095 5.28691,-2.747586 z"
       style="clip-rule:evenodd;fill:#ffffff;fill-opacity:1;fill-rule:evenodd;stroke:#ffffff;stroke-width:10;stroke-miterlimit:4;stroke-dasharray:none;stroke-opacity:1" /><path
       inkscape:connector-curvature="0"
       id="path4224"
       d="m 38.532971,540.15424 c 2.044567,-6.41913 6.457195,-11.56016 10.147777,-16.9126 3.696924,-5.36198 7.320903,-10.77151 10.993511,-16.06688 6.454024,-9.31155 12.243088,-19.16015 19.237326,-28.11755 0.953567,-1.22104 1.926164,-2.68204 3.382945,-3.38189 3.10808,1.89551 6.239417,3.76565 8.244869,6.76483 -5.596659,9.04304 -13.367916,17.51203 -20.929854,26.63646 -3.389287,4.09019 -6.926579,8.31888 -10.782078,12.89536 -0.811907,0.96415 -1.513868,2.26552 -2.536151,3.38295 -1.881763,2.05408 -3.53412,3.79735 -5.497286,6.34196 -1.207288,1.56567 -2.103769,2.58055 -2.114341,4.22763 -0.02114,3.43157 7.331476,10.88357 13.106796,10.3592 2.063597,-0.18711 4.699122,-2.49491 6.553399,-4.01619 7.698313,-6.31235 15.054102,-12.47777 22.408835,-19.23838 3.469632,-3.18948 6.808176,-6.53014 10.147781,-10.56959 1.77498,-2.14816 3.99293,-3.828 4.22762,-6.55339 0.18712,-2.16825 -0.49053,-3.88722 -1.26861,-5.28585 -0.75693,-1.36164 -2.14605,-2.72115 -2.11434,-4.43905 0.038,-2.08475 3.07637,-4.16103 5.07336,-6.34197 8.92252,-9.74711 18.81129,-18.8874 27.48326,-28.96224 3.54575,-4.11978 7.31138,-7.79979 11.20495,-11.41638 7.73742,-7.18875 14.73906,-15.44314 22.40883,-22.83276 7.85055,-7.56193 15.99921,-14.6862 23.04314,-22.1974 5.48988,-5.85461 11.25992,-11.27895 17.12404,-16.9126 5.67171,-5.44866 11.14786,-11.17112 16.48974,-17.33548 6.99529,-8.07361 15.27188,-14.47055 22.1974,-23.04314 3.28145,-4.06165 6.61577,-8.54404 10.57065,-12.04962 3.71383,-3.29203 7.53868,-7.26488 11.20494,-11.41638 1.52549,-1.72848 3.06156,-4.1198 5.07336,-6.13054 1.73588,-1.73587 5.31439,-4.80589 7.1877,-4.65048 3.35757,0.27803 6.04279,1.86167 8.87811,2.96007 2.75288,1.06562 5.6897,2.06888 8.87917,2.95902 6.0819,1.69781 14.65133,2.87127 20.2945,0 6.44239,-3.27829 9.99449,-10.12663 12.68498,-17.33547 2.77825,-7.44671 2.64504,-16.79421 4.86299,-25.15748 2.11116,-7.96579 4.90209,-15.42412 8.4563,-21.56311 3.77199,-6.51851 8.41402,-11.27471 13.95148,-16.06686 5.3165,-4.60081 11.31806,-8.91301 17.96977,-12.05069 6.72255,-3.17151 14.00011,-5.85673 20.92986,-9.0906 6.60837,-3.08377 13.23366,-6.65172 19.44876,-10.57066 6.17916,-3.89567 12.32343,-7.33358 17.96978,-11.83924 5.49411,-4.38408 11.16794,-8.73328 16.70117,-13.31823 5.38629,-4.46337 10.90682,-9.24283 15.644,-14.3754 5.98042,-6.48045 11.19332,-13.82673 16.91261,-20.71842 2.21372,-2.66512 4.49932,-5.52371 6.34303,-8.66774 2.68415,-4.5786 5.34505,-9.62976 7.61057,-14.79826 1.5202,-3.46963 2.36911,-7.37165 3.59331,-11.41638 0.27064,-0.89542 0.85208,-1.83525 1.05717,-2.74865 0.11417,-0.51484 -0.0899,-0.92502 0,-1.48004 0.0656,-0.41229 0.5455,-0.84361 0.63431,-1.2686 1.20834,-5.79329 1.72741,-13.985303 0.6343,-20.929859 -1.27178,-8.076779 -5.00359,-14.847955 -9.51347,-20.505927 -2.23487,-2.804672 -4.96553,-5.17802 -7.39914,-7.610567 -7.2765,-7.276503 -18.42965,-12.897477 -32.76805,-12.049626 -8.9204,0.527527 -16.42525,3.937959 -22.8317,7.1877 -12.38897,6.284876 -23.94279,16.755089 -33.61484,26.426079 -4.94861,4.949671 -9.60756,10.451183 -13.95253,16.066876 -4.33334,5.601944 -8.69311,11.283184 -13.1068,16.912614 -4.401,5.61463 -8.28504,11.80964 -12.04962,17.96977 -3.82484,6.25951 -7.54079,12.46721 -10.99245,18.81552 -1.78134,3.27405 -3.39775,6.62634 -5.07336,9.93528 -1.74328,3.44215 -2.95374,6.98578 -4.44012,10.57065 -2.90933,7.01749 -6.26902,13.72101 -9.93528,20.08306 -3.66522,6.35887 -8.01335,11.93757 -12.68499,17.33548 -4.77101,5.51313 -10.02409,9.92154 -15.85544,13.95252 -5.61569,3.88299 -11.88365,8.18039 -18.81552,11.20495 -6.90225,3.01294 -14.15233,5.55015 -20.08305,9.93634 -5.25943,3.88933 -10.42687,9.12444 -13.53073,16.48974 -2.72538,6.46777 -4.22128,17.40631 -1.2686,25.58035 0.97894,2.71059 1.83314,3.24763 3.80581,6.76483 -2.31414,2.77719 -4.05319,4.37458 -6.76483,6.97627 -0.50744,0.48735 -0.92397,0.81931 -1.2686,1.05717 -0.63642,0.43872 -0.26641,0.52858 -1.05717,0.21144 -1.08677,-0.43662 -2.18306,-3.23178 -2.95902,-4.86193 -2.49598,-5.24357 -4.32805,-11.47981 -4.86298,-18.60409 -0.79605,-10.60764 2.20314,-18.58821 5.70765,-25.15747 7.30822,-13.6967 19.85895,-22.53675 34.03666,-28.54043 6.7532,-2.85964 13.13217,-4.87038 19.23838,-8.24486 13.8373,-7.64757 24.51577,-19.68557 30.65371,-35.72812 0.74318,-1.94203 1.07831,-4.142 1.69146,-6.13054 0.65017,-2.11116 1.16184,-4.12295 1.69148,-6.13053 2.11857,-8.02285 5.5512,-15.1207 8.87917,-22.1974 1.61008,-3.42417 3.7593,-6.6274 5.70766,-9.93634 11.43012,-19.40647 25.3298,-37.1923 40.16718,-53.485414 4.92324,-5.406367 9.89829,-10.775732 15.43257,-15.855435 5.34294,-4.903155 10.98295,-9.865511 17.12405,-14.163965 1.54452,-1.080428 2.85541,-2.332118 4.43905,-3.382945 4.51835,-2.997077 9.6488,-6.015298 15.00971,-8.456304 7.71417,-3.51192 15.61017,-6.535426 24.9471,-6.976266 11.66058,-0.550786 21.39712,4.039447 28.7508,9.302041 7.86534,5.628373 13.71255,11.6331 19.23732,18.604079 6.08719,7.67717 9.68685,15.431511 11.20495,26.847891 1.45572,10.943834 -1.8416,22.295728 -5.07336,31.922318 -3.05311,9.09271 -7.46997,17.76363 -12.04962,26.00322 -8.98067,16.15566 -21.05355,29.72127 -33.61379,42.28151 -3.16623,3.16623 -6.546,6.17282 -9.93635,9.09061 -3.38928,2.91673 -6.64959,6.01953 -10.14777,8.66774 -7.15492,5.41482 -14.59001,10.66473 -22.40883,15.644 -3.88511,2.47272 -7.72263,5.03636 -11.8382,7.1877 -4.11768,2.15134 -8.29561,4.11662 -12.68498,6.13053 -4.3048,1.97585 -8.65188,4.08702 -13.10679,5.92015 -13.23366,5.44232 -24.96296,12.91333 -31.71088,25.15748 -4.42638,8.03132 -6.93187,18.72248 -9.30204,28.75185 -1.26015,5.33449 -2.3078,10.34124 -4.01725,15.00971 -3.4728,9.48599 -8.50811,15.87975 -16.70118,21.14129 -3.98553,2.55835 -8.65611,4.91161 -13.74215,5.28479 -6.33879,0.46621 -11.53055,-1.04872 -16.06687,-2.53615 -4.28154,-1.40498 -10.004,-4.19908 -15.644,-2.74864 -2.0784,0.53387 -3.69375,2.59218 -5.70767,4.65049 -5.08393,5.19493 -10.50721,10.84974 -15.22113,15.85544 -10.42793,11.07597 -19.91603,21.18357 -30.44227,31.71087 -3.48021,3.48021 -6.7902,7.08304 -10.35921,10.35922 -10.62562,9.7545 -20.71525,20.77972 -31.49944,30.65369 -10.86666,9.94904 -20.69622,20.00695 -31.07658,31.07764 -9.95537,10.6161 -19.6993,21.26815 -30.86514,31.28906 -1.6883,1.51493 -3.38717,2.98333 -5.28479,5.07337 -2.05408,2.26233 -4.41475,3.56477 -4.86298,6.13158 -0.46727,2.6757 0.30974,5.5512 1.05717,7.61057 0.76433,2.10483 2.80995,4.35554 2.74864,6.13053 -0.0793,2.28878 -4.22869,5.84298 -6.13054,7.61056 -2.67674,2.48753 -4.89469,4.59553 -7.18769,6.5534 -2.54883,2.17778 -4.732951,4.56804 -7.1877,6.5534 -2.608039,2.10906 -4.956013,4.2974 -7.399134,6.34196 -10.017745,8.38337 -20.684591,17.09233 -31.710875,23.0442 -0.245264,0.0338 -0.376353,-0.0465 -0.422869,-0.21143 -4.320654,-1.82574 -7.586253,-5.22242 -10.570644,-8.45631 -2.998135,-3.25291 -5.937068,-6.67919 -8.455247,-10.36027 z"
       style="clip-rule:evenodd;fill:#ffffff;fill-opacity:1;fill-rule:evenodd;stroke:#ffffff;stroke-width:10;stroke-miterlimit:4;stroke-dasharray:none;stroke-opacity:1" /><path
       inkscape:connector-curvature="0"
       id="path4226"
       d="m 252.90065,61.315365 c 4.83655,-0.830935 9.29992,3.421004 13.31822,5.496228 6.54283,3.37872 13.80559,6.653827 20.29556,10.99351 3.32057,2.220058 7.19615,4.674806 8.03344,7.610568 0.65333,2.290888 -0.21356,5.151592 -1.05717,5.920154 -3.63033,3.304719 -11.07281,-1.35846 -14.3754,-3.382945 -1.79508,-1.100514 -3.96967,-2.392376 -6.34197,-3.593322 -2.42092,-1.227374 -4.88095,-2.724327 -6.76483,-3.17151 -2.99074,-0.710418 -5.69392,-0.119461 -8.03344,-0.634302 -1.20094,-0.26535 -3.7075,-1.258032 -4.86298,-1.902907 -2.1598,-1.20623 -4.36188,-3.12288 -5.2848,-5.284793 -0.75798,-1.774989 -1.19988,-5.45711 -0.63429,-7.399131 0.70725,-2.428321 3.61341,-4.291054 5.70766,-4.65155 z"
       style="clip-rule:evenodd;fill:#ffffff;fill-opacity:1;fill-rule:evenodd;stroke:#ffffff;stroke-width:10;stroke-miterlimit:4;stroke-dasharray:none;stroke-opacity:1" /><path
       inkscape:connector-curvature="0"
       id="path4228"
       d="m 399.82932,169.76729 c 5.58292,-1.57943 11.77794,-3.28464 16.91262,-6.5534 11.59715,-7.38328 22.58326,-16.70858 31.288,-27.48221 1.75279,-2.17036 3.79841,-4.83654 4.65049,-6.97626 2.14712,-5.38205 -2.13654,-9.94374 -4.86298,-13.10679 -2.2782,-2.64399 -4.64838,-6.40539 -8.03344,-6.5534 -3.35651,-0.14695 -6.17704,3.273 -8.4563,6.34196 -2.293,3.08905 -4.11556,6.30602 -5.92016,8.87918 -4.20013,5.99098 -8.51655,11.6109 -12.68392,16.70117 -4.40629,5.37994 -9.55153,10.75988 -13.7411,15.85543 -1.02862,1.24959 -1.93885,2.85437 -3.17151,4.22763 -1.1798,1.31512 -2.63975,2.35432 -3.59438,3.80582 -1.92298,2.92413 -3.85867,6.78702 -4.22867,10.35921 -0.4049,3.92738 0.2072,7.49956 0.63535,11.41531 0.12898,1.19038 0.48313,2.56258 0.42182,3.59438 -0.18713,3.18314 -2.02871,7.31773 -4.22763,8.24488 -3.18631,1.3426 -7.05873,-0.3827 -10.57065,0.42286 -2.21794,0.5085 -4.80695,2.75922 -5.49622,5.07443 -0.48947,1.64283 0.0877,4.69805 -0.21144,6.97626 -0.37424,2.83744 -2.94316,7.79769 -4.65048,9.51347 -1.6714,1.67984 -6.17071,4.08808 -9.30205,4.44011 -2.24332,0.25161 -4.91266,-0.4292 -8.03343,0 -6.50477,0.89543 -13.33515,8.0715 -17.96978,12.89537 -5.00781,5.2129 -9.4659,10.91528 -14.37646,16.27831 -2.42515,2.64926 -5.13045,5.17801 -7.61057,7.822 -2.51077,2.67781 -4.84077,5.47508 -7.39913,8.03343 -5.18859,5.18859 -9.9892,10.67953 -14.79827,15.85543 -2.47378,2.66196 -5.21185,5.02368 -7.61057,7.82202 -2.40505,2.80572 -4.80801,5.44124 -7.39913,8.03343 -7.69408,7.69408 -14.88495,15.72963 -22.62027,23.466 -12.63953,12.63953 -25.04859,26.31614 -37.8414,39.11107 -5.1294,5.13045 -10.42371,10.06532 -15.00971,15.644 -2.28454,2.7793 -5.16533,5.13574 -7.61056,7.822 -16.9919,18.66117 -34.83377,36.7409 -52.00644,55.59976 -7.14857,7.8516 -14.59846,15.61016 -22.19739,23.88993 -1.05611,1.15019 -2.23169,2.57632 -3.59438,4.01619 -1.31195,1.387 -3.54046,3.55738 -4.01619,3.59438 -1.09945,0.0835 -2.98862,-1.78345 -3.80581,-2.53721 -1.270723,-1.1724 -1.939912,-1.80037 -2.748647,-3.38189 8.865437,-10.77996 19.950907,-19.98897 29.597587,-30.65371 9.45956,-10.45859 19.2183,-20.77022 28.96223,-31.07763 7.2818,-7.70254 14.50862,-15.40085 21.56311,-23.46601 2.35432,-2.69155 4.34285,-5.63048 6.76483,-8.24486 2.38709,-2.57739 4.83867,-5.04905 7.39913,-7.61057 4.94967,-4.94967 9.52934,-10.37402 14.58684,-15.43362 2.5076,-2.50761 4.71603,-5.29538 7.1877,-7.82202 9.54095,-9.74816 19.44876,-20.41183 29.17472,-30.86514 9.79468,-10.52729 19.62954,-20.68881 29.17473,-30.86514 9.33904,-9.95747 19.72785,-20.06508 29.17367,-30.86514 4.44011,-5.07652 9.45109,-10.26617 14.3754,-15.644 2.21899,-2.42197 4.734,-5.16321 7.18875,-7.822 3.06051,-3.31634 6.23202,-6.55445 10.14778,-7.822 3.61764,-1.17134 8.21844,0.33407 11.83819,-0.84574 2.9791,-0.97154 7.15281,-4.47077 7.61057,-7.18769 0.76327,-4.52258 -3.64724,-7.18559 -3.59333,-11.20495 0.074,-5.63683 4.82705,-6.13053 11.41638,-6.13053 4.43272,0 8.61277,-0.26112 11.41533,-1.26861 2.18517,-0.78547 4.76361,-2.59746 5.49728,-5.07336 0.81191,-2.74441 0.52964,-6.15907 0.21038,-8.87917 -0.47044,-4.02147 -2.57103,-7.13272 -1.05611,-11.20495 1.14703,-3.08482 4.51094,-6.15695 7.60951,-8.66773 8.63073,-6.99106 16.87666,-16.35442 23.25563,-25.15748 4.24559,-5.85989 8.71742,-12.76955 12.68392,-19.66125 2.08581,-3.62292 3.23495,-7.74483 5.28479,-10.99246 2.15558,-3.41359 5.43069,-6.346188 8.45631,-7.610567 1.84582,-0.770673 4.89047,0.827765 6.76483,1.902906 5.37466,3.079551 9.87186,6.333511 14.16397,10.359211 4.59129,4.3048 12.79916,11.0062 11.20495,20.9288 -1.11426,6.93503 -5.96245,13.25269 -10.78103,17.96978 -2.39555,2.3448 -5.28161,4.20754 -8.03449,6.34196 -2.79833,2.17038 -5.45394,4.30797 -8.24487,5.9191 -5.85461,3.37977 -12.03376,6.65383 -19.02694,9.7249 -2.92308,1.28341 -5.74573,3.06051 -9.09061,5.2848 -1.89973,1.26332 -6.64326,5.54486 -8.87917,4.86193 -2.91463,-0.89226 -1.79931,-7.49534 -2.11118,-10.36132 z"
       style="clip-rule:evenodd;fill:#ffffff;fill-opacity:1;fill-rule:evenodd;stroke:#ffffff;stroke-width:10;stroke-miterlimit:4;stroke-dasharray:none;stroke-opacity:1" /><path
       inkscape:connector-curvature="0"
       id="path4230"
       d="m 570.01152,142.70689 c 0.14166,0 0.28227,0 0.42287,0 -0.0391,0.17972 0.0814,0.19982 0.21037,0.21144 0,0.1406 0,0.28227 0,0.42287 -0.17972,-0.0391 -0.1998,0.0825 -0.21037,0.21143 -0.14166,0 -0.28227,0 -0.42287,0 0.0391,-0.17972 -0.0825,-0.19875 -0.21143,-0.21143 0,-0.1406 0,-0.28227 0,-0.42287 0.17971,0.0392 0.1998,-0.0814 0.21143,-0.21144 z"
       style="clip-rule:evenodd;fill:#ffffff;fill-opacity:1;fill-rule:evenodd;stroke:#ffffff;stroke-width:10;stroke-miterlimit:4;stroke-dasharray:none;stroke-opacity:1" /><path
       inkscape:connector-curvature="0"
       id="path4232"
       d="m 552.6771,152.00894 c 5.09133,-0.44189 11.10452,0.55078 16.48974,1.05716 1.75913,0.16493 3.61446,0.074 5.70872,0.21144 3.83964,0.2516 8.29984,0.88802 12.47355,1.26861 3.80158,0.34675 9.57479,0.11628 11.62676,1.9029 1.57201,1.36798 4.7192,8.58528 2.96007,11.83925 -1.30031,2.40506 -8.14444,3.03303 -12.89536,2.53721 -3.0975,-0.3235 -6.0005,-1.55404 -9.51347,-1.90291 -1.01594,-0.10041 -2.1006,0.0211 -3.17151,-0.21143 -1.8564,-0.40384 -3.125,-2.1894 -5.2848,-2.53721 -3.07002,-0.49475 -5.75946,0.68822 -8.24486,0.63431 -5.21502,-0.11312 -7.57357,-1.83736 -10.14778,-5.2848 -1.26226,-1.69041 -2.96748,-3.27934 -2.96008,-5.28479 0.005,-2.00757 1.25063,-3.46013 2.95902,-4.22974 z"
       style="clip-rule:evenodd;fill:#ffffff;fill-opacity:1;fill-rule:evenodd;stroke:#ffffff;stroke-width:10;stroke-miterlimit:4;stroke-dasharray:none;stroke-opacity:1" /><path
       inkscape:connector-curvature="0"
       id="path4234"
       d="m 535.76449,215.64318 c 5.18542,-1.16817 8.79143,2.51395 12.04963,5.70766 3.16622,3.10385 6.30601,5.99838 10.14777,8.24487 3.20217,1.87225 7.33677,2.87656 10.99246,4.86193 1.59633,0.86688 2.88819,2.45052 4.43906,3.38294 1.10368,0.66285 2.42726,1.11108 3.59438,1.69147 3.33854,1.66082 6.53437,3.65147 9.72385,5.9191 3.12288,2.219 6.50688,4.05847 9.7249,6.13052 0.51273,0.32984 0.943,0.73685 1.47898,1.05718 1.79402,1.07091 4.22023,3.3174 5.07442,5.70766 1.61218,4.51623 -0.0106,10.2609 -3.59332,10.57065 -2.6239,0.22623 -6.50054,-2.18835 -9.09166,-3.80582 -5.04905,-3.15248 -9.01449,-5.36302 -13.52966,-8.66774 -0.34888,-0.25583 -0.74743,-0.38269 -1.05718,-0.63429 -0.24949,-0.20298 -0.36789,-0.63431 -0.6343,-0.84574 -2.33846,-1.85639 -5.01733,-3.08165 -7.82306,-4.86298 -6.1707,-3.91788 -11.28846,-6.17705 -16.2783,-9.30205 -3.81004,-2.38497 -7.55454,-5.01838 -11.41532,-7.61057 -2.5795,-1.73164 -4.46233,-2.85753 -6.5534,-5.49622 -0.86054,-1.08571 -1.87331,-2.46427 -2.11434,-3.38295 -1.13435,-4.33968 2.23062,-8.07255 4.86509,-8.66562 z"
       style="clip-rule:evenodd;fill:#ffffff;fill-opacity:1;fill-rule:evenodd;stroke:#ffffff;stroke-width:10;stroke-miterlimit:4;stroke-dasharray:none;stroke-opacity:1" /><path
       inkscape:connector-curvature="0"
       id="path4236"
       d="m 475.5132,243.97217 c 0.27697,-0.056 1.95153,-0.45141 3.38188,0 3.24868,1.02439 4.6727,5.53534 5.92015,8.87917 1.27601,3.41995 3.88193,7.52494 5.49623,9.30204 2.1746,2.39343 5.60089,4.27202 8.24488,7.1877 1.47263,1.62487 2.88079,3.48126 4.4401,5.28585 1.46947,1.69993 2.69051,3.64089 4.01619,5.49623 2.70002,3.77621 6.98367,7.09784 8.87918,10.35921 2.42197,4.1663 3.06579,9.93423 -1.9029,11.41532 -4.9962,1.48956 -8.73329,-1.34789 -11.41639,-3.80581 -4.71815,-4.3196 -7.38327,-10.78419 -11.20495,-16.48974 -1.22949,-1.83736 -2.77612,-3.57746 -4.01724,-5.49623 -2.53192,-3.91575 -4.75938,-7.24902 -8.24487,-10.35921 -2.58267,-2.30569 -6.16436,-4.23291 -7.822,-7.39913 -1.2961,-2.47695 -1.86802,-6.98367 -1.47898,-9.09061 0.5751,-3.12605 3.96227,-4.93276 5.70872,-5.28479 z"
       style="clip-rule:evenodd;fill:#ffffff;fill-opacity:1;fill-rule:evenodd;stroke:#ffffff;stroke-width:10;stroke-miterlimit:4;stroke-dasharray:none;stroke-opacity:1" /></g></svg>